<svg width="47" height="55" viewBox="0 0 75 90" fill="none" xmlns="http://www.w3.org/2000/svg">
<path d="M0 20.895C0 18.9614 1.1149 17.2011 2.86301 16.3747L35.363 1.01027C36.7159 0.370691 38.2841 0.37069 39.637 1.01027L72.137 16.3747C73.8851 17.2011 75 18.9614 75 20.895V68.0191C75 69.9072 73.9365 71.6342 72.2505 72.484L39.7505 88.8656C38.335 89.5791 36.665 89.5791 35.2495 88.8656L2.74948 72.484C1.06351 71.6342 0 69.9072 0 68.0191V20.895Z" fill="#6BC432"/>
<g clip-path="url(#clip0_0_5367)">
<path d="M34.1852 41.6094C35.8861 39.8709 38.1756 38.8671 40.5801 38.8058C42.9847 38.7444 45.3203 39.6301 47.1039 41.2798L47.4433 41.6094L52.7458 47.0317C54.4728 48.8001 55.4557 51.1881 55.4851 53.6867C55.5146 56.1853 54.5882 58.5968 52.9034 60.4072C51.2186 62.2177 48.9087 63.2839 46.466 63.3786C44.0234 63.4732 41.6411 62.5889 39.8271 60.9141L39.4896 60.5844L35.5108 56.5173C35.1745 56.1723 34.9793 55.7095 34.9648 55.2228C34.9502 54.736 35.1175 54.2619 35.4325 53.8966C35.7476 53.5314 36.1868 53.3024 36.6611 53.2562C37.1353 53.2101 37.6089 53.3501 37.9858 53.648L38.1621 53.8071L42.1408 57.8743C43.1722 58.9347 44.5672 59.5427 46.0298 59.5693C47.4924 59.5959 48.9077 59.039 49.9753 58.0167C51.0429 56.9944 51.6789 55.5872 51.7485 54.0935C51.818 52.5998 51.3155 51.1372 50.3477 50.0159L50.0946 49.7418L44.7921 44.3196C44.2697 43.7856 43.6496 43.3619 42.9671 43.0729C42.2845 42.7839 41.553 42.6351 40.8142 42.6351C40.0755 42.6351 39.344 42.7839 38.6614 43.0729C37.9789 43.3619 37.3588 43.7856 36.8364 44.3196C36.4828 44.6687 36.0092 44.8619 35.5176 44.8576C35.0259 44.8532 34.5557 44.6516 34.208 44.2962C33.8604 43.9409 33.6632 43.4602 33.6589 42.9576C33.6546 42.4551 33.8436 41.9709 34.1852 41.6094ZM30.0002 54.5833C30.4594 54.5834 30.9027 54.7558 31.2459 55.0677C31.5891 55.3797 31.8083 55.8095 31.8621 56.2758L31.8752 56.5V60.3333C31.8747 60.8219 31.6917 61.2917 31.3636 61.647C31.0355 62.0022 30.5871 62.216 30.1101 62.2446C29.633 62.2732 29.1632 62.1145 28.7967 61.801C28.4303 61.4875 28.1948 61.0427 28.1383 60.5576L28.1252 60.3333V56.5C28.1252 55.9917 28.3227 55.5042 28.6744 55.1447C29.026 54.7853 29.5029 54.5833 30.0002 54.5833ZM24.3752 50.75C24.8531 50.7506 25.3127 50.9376 25.6603 51.273C26.0078 51.6083 26.2169 52.0667 26.2449 52.5543C26.2729 53.042 26.1177 53.5222 25.8109 53.8969C25.5042 54.2715 25.0691 54.5122 24.5946 54.5699L24.3752 54.5833H22.5002C22.0223 54.5828 21.5626 54.3957 21.2151 54.0604C20.8676 53.725 20.6585 53.2667 20.6305 52.779C20.6025 52.2913 20.7577 51.8111 21.0644 51.4365C21.3712 51.0619 21.8063 50.8211 22.2808 50.7634L22.5002 50.75H24.3752ZM22.2527 29.4118C23.9536 27.6732 26.2431 26.6695 28.6476 26.6081C31.0522 26.5467 33.3878 27.4325 35.1714 29.0821L35.5108 29.4118L39.4877 33.4808C39.824 33.8258 40.0192 34.2886 40.0337 34.7753C40.0483 35.2621 39.881 35.7362 39.566 36.1015C39.2509 36.4667 38.8117 36.6957 38.3374 36.7419C37.8632 36.788 37.3895 36.648 37.0127 36.3501L36.8364 36.191L32.8596 32.1258C31.8264 31.0765 30.4354 30.4778 28.9791 30.4555C27.5229 30.4333 26.115 30.9893 25.0516 32.0065C23.9882 33.0238 23.3523 34.423 23.2775 35.9098C23.2028 37.3965 23.6951 38.855 24.6508 39.9783L24.9039 40.2543L30.2083 45.6766C31.2632 46.7546 32.6936 47.3601 34.1852 47.3601C35.6767 47.3601 37.1072 46.7546 38.1621 45.6766C38.3361 45.4985 38.5428 45.3572 38.7703 45.2608C38.9978 45.1644 39.2417 45.1147 39.488 45.1146C39.7342 45.1145 39.9781 45.164 40.2057 45.2603C40.4333 45.3565 40.64 45.4977 40.8142 45.6756C40.9885 45.8536 41.1267 46.0649 41.221 46.2974C41.3153 46.53 41.3639 46.7792 41.364 47.031C41.3641 47.2827 41.3157 47.5321 41.2215 47.7647C41.1273 47.9973 40.9893 48.2087 40.8152 48.3868C39.1143 50.1253 36.8248 51.1291 34.4203 51.1904C32.0157 51.2518 29.68 50.3661 27.8964 48.7164L27.5552 48.3868L22.2527 42.9645C20.4951 41.1674 19.5078 38.7303 19.5078 36.1891C19.5078 33.6479 20.4951 31.2089 22.2527 29.4118ZM52.5002 35.4167C52.9975 35.4167 53.4744 35.6186 53.826 35.9781C54.1776 36.3375 54.3752 36.825 54.3752 37.3333C54.3752 37.8417 54.1776 38.3292 53.826 38.6886C53.4744 39.0481 52.9975 39.25 52.5002 39.25H50.6252C50.1279 39.25 49.651 39.0481 49.2994 38.6886C48.9477 38.3292 48.7502 37.8417 48.7502 37.3333C48.7502 36.825 48.9477 36.3375 49.2994 35.9781C49.651 35.6186 50.1279 35.4167 50.6252 35.4167H52.5002ZM45.0002 27.75C45.4594 27.7501 45.9027 27.9224 46.2459 28.2344C46.5891 28.5463 46.8083 28.9762 46.8621 29.4424L46.8752 29.6667V33.5C46.8747 33.9885 46.6917 34.4584 46.3636 34.8136C46.0355 35.1689 45.5871 35.3826 45.1101 35.4113C44.633 35.4399 44.1632 35.2812 43.7967 34.9677C43.4303 34.6541 43.1948 34.2094 43.1383 33.7243L43.1252 33.5V29.6667C43.1252 29.1583 43.3227 28.6708 43.6744 28.3114C44.026 27.9519 44.5029 27.75 45.0002 27.75Z" fill="white"/>
</g>
<defs>
<clipPath id="clip0_0_5367">
<rect width="45" height="46" fill="white" transform="translate(15 22)"/>
</clipPath>
</defs>
</svg>
