<svg width="21" height="21" viewBox="0 0 21 21" fill="none" xmlns="http://www.w3.org/2000/svg">
<path d="M14.875 12.25V17.5M12.25 14.875H17.5M5.25 8.75H7C7.46413 8.75 7.90925 8.56563 8.23744 8.23744C8.56563 7.90925 8.75 7.46413 8.75 7V5.25C8.75 4.78587 8.56563 4.34075 8.23744 4.01256C7.90925 3.68437 7.46413 3.5 7 3.5H5.25C4.78587 3.5 4.34075 3.68437 4.01256 4.01256C3.68437 4.34075 3.5 4.78587 3.5 5.25V7C3.5 7.46413 3.68437 7.90925 4.01256 8.23744C4.34075 8.56563 4.78587 8.75 5.25 8.75ZM14 8.75H15.75C16.2141 8.75 16.6592 8.56563 16.9874 8.23744C17.3156 7.90925 17.5 7.46413 17.5 7V5.25C17.5 4.78587 17.3156 4.34075 16.9874 4.01256C16.6592 3.68437 16.2141 3.5 15.75 3.5H14C13.5359 3.5 13.0908 3.68437 12.7626 4.01256C12.4344 4.34075 12.25 4.78587 12.25 5.25V7C12.25 7.46413 12.4344 7.90925 12.7626 8.23744C13.0908 8.56563 13.5359 8.75 14 8.75ZM5.25 17.5H7C7.46413 17.5 7.90925 17.3156 8.23744 16.9874C8.56563 16.6592 8.75 16.2141 8.75 15.75V14C8.75 13.5359 8.56563 13.0908 8.23744 12.7626C7.90925 12.4344 7.46413 12.25 7 12.25H5.25C4.78587 12.25 4.34075 12.4344 4.01256 12.7626C3.68437 13.0908 3.5 13.5359 3.5 14V15.75C3.5 16.2141 3.68437 16.6592 4.01256 16.9874C4.34075 17.3156 4.78587 17.5 5.25 17.5Z" stroke="#7A7777" stroke-width="2" stroke-linecap="round" stroke-linejoin="round"/>
</svg>
