<svg xmlns="http://www.w3.org/2000/svg" xmlns:xlink="http://www.w3.org/1999/xlink" viewBox="0,0,256,256" width="64px" height="64px"><g fill="#ffffff" fill-rule="nonzero" stroke="none" stroke-width="1" stroke-linecap="butt" stroke-linejoin="miter" stroke-miterlimit="10" stroke-dasharray="" stroke-dashoffset="0" font-family="none" font-weight="none" font-size="none" text-anchor="none" style="mix-blend-mode: normal"><g transform="scale(4,4)"><path d="M23.65625,4c-1.33594,0 -2.58984,0.51953 -3.53516,1.46484l-8.65625,8.65625c-0.94531,0.94531 -1.46484,2.19922 -1.46484,3.53516v39.34375c0,1.65234 1.34766,3 3,3h40c1.65234,0 3,-1.34766 3,-3v-50c0,-1.65234 -1.34766,-3 -3,-3zM24,6h29c0.55078,0 1,0.44922 1,1v50c0,0.55078 -0.44922,1 -1,1h-40c-0.55078,0 -1,-0.44922 -1,-1v-39h9c1.65234,0 3,-1.34766 3,-3zM22,6.5v8.5c0,0.55078 -0.44922,1 -1,1h-8.5c0.10547,-0.16406 0.23438,-0.32031 0.37891,-0.46484l8.65625,-8.65625c0.14453,-0.14062 0.30078,-0.26562 0.46484,-0.37891zM21,22c-0.55078,0 -1,0.44922 -1,1c0,0.55078 0.44922,1 1,1h16c0.55078,0 1,-0.44922 1,-1c0,-0.55078 -0.44922,-1 -1,-1zM41,22c-0.55078,0 -1,0.44922 -1,1c0,0.55078 0.44922,1 1,1h4c0.55078,0 1,-0.44922 1,-1c0,-0.55078 -0.44922,-1 -1,-1zM21,26c-0.55078,0 -1,0.44922 -1,1c0,0.55078 0.44922,1 1,1h20c0.55078,0 1,-0.44922 1,-1c0,-0.55078 -0.44922,-1 -1,-1zM21,32c-0.55078,0 -1,0.44922 -1,1c0,0.55078 0.44922,1 1,1h22c0.55078,0 1,-0.44922 1,-1c0,-0.55078 -0.44922,-1 -1,-1zM21,36c-0.55078,0 -1,0.44922 -1,1c0,0.55078 0.44922,1 1,1h12c0.55078,0 1,-0.44922 1,-1c0,-0.55078 -0.44922,-1 -1,-1zM15,50c-0.55078,0 -1,0.44922 -1,1v2c0,0.55078 0.44922,1 1,1c0.55078,0 1,-0.44922 1,-1v-2c0,-0.55078 -0.44922,-1 -1,-1zM20,50c-0.55078,0 -1,0.44922 -1,1v2c0,0.55078 0.44922,1 1,1c0.55078,0 1,-0.44922 1,-1v-2c0,-0.55078 -0.44922,-1 -1,-1zM25,50c-0.55078,0 -1,0.44922 -1,1v2c0,0.55078 0.44922,1 1,1c0.55078,0 1,-0.44922 1,-1v-2c0,-0.55078 -0.44922,-1 -1,-1zM30,50c-0.55078,0 -1,0.44922 -1,1v2c0,0.55078 0.44922,1 1,1c0.55078,0 1,-0.44922 1,-1v-2c0,-0.55078 -0.44922,-1 -1,-1zM35,50c-0.55078,0 -1,0.44922 -1,1v2c0,0.55078 0.44922,1 1,1c0.55078,0 1,-0.44922 1,-1v-2c0,-0.55078 -0.44922,-1 -1,-1zM40,50c-0.55078,0 -1,0.44922 -1,1v2c0,0.55078 0.44922,1 1,1c0.55078,0 1,-0.44922 1,-1v-2c0,-0.55078 -0.44922,-1 -1,-1zM45,50c-0.55078,0 -1,0.44922 -1,1v2c0,0.55078 0.44922,1 1,1c0.55078,0 1,-0.44922 1,-1v-2c0,-0.55078 -0.44922,-1 -1,-1zM50,50c-0.55078,0 -1,0.44922 -1,1v2c0,0.55078 0.44922,1 1,1c0.55078,0 1,-0.44922 1,-1v-2c0,-0.55078 -0.44922,-1 -1,-1z"></path></g></g></svg>