<svg width="25" height="25" viewBox="0 0 25 25" fill="none" xmlns="http://www.w3.org/2000/svg">
<path d="M14.5833 12.5C13.4427 12.5 12.5 11.5573 12.5 10.4167C12.5 10.0479 12.6073 9.70521 12.7792 9.40313C12.6854 9.39583 12.5958 9.375 12.5 9.375C11.6729 9.38046 10.8812 9.71145 10.2963 10.2963C9.71145 10.8812 9.38046 11.6729 9.375 12.5C9.375 14.2104 10.7896 15.625 12.5 15.625C14.2094 15.625 15.625 14.2104 15.625 12.5C15.625 12.4042 15.6042 12.3146 15.5969 12.2208C15.2948 12.3927 14.9521 12.5 14.5833 12.5Z" fill="#535353"/>
<path d="M12.5003 5.20825C4.54922 5.20825 2.15964 12.101 2.13776 12.1708L2.02734 12.4999L2.13672 12.8291C2.15964 12.8989 4.54922 19.7916 12.5003 19.7916C20.4513 19.7916 22.8409 12.8989 22.8628 12.8291L22.9732 12.4999L22.8638 12.1708C22.8409 12.101 20.4513 5.20825 12.5003 5.20825ZM12.5003 17.7083C6.9263 17.7083 4.76693 13.702 4.24401 12.4999C4.76901 11.2937 6.92943 7.29159 12.5003 7.29159C18.0742 7.29159 20.2336 11.2978 20.7565 12.4999C20.2315 13.7062 18.0711 17.7083 12.5003 17.7083Z" fill="#535353"/>
</svg>
