<svg width="42" height="41" viewBox="0 0 42 41" fill="none" xmlns="http://www.w3.org/2000/svg">
<circle cx="21.5" cy="20.5" r="20.5" fill="#FE6637"/>
<path d="M25.0938 27.6875H12.875C12.4938 27.6875 12.1281 27.536 11.8585 27.2665C11.589 26.9969 11.4375 26.6312 11.4375 26.25V14.75C11.4375 14.3688 11.589 14.0031 11.8585 13.7335C12.1281 13.464 12.4938 13.3125 12.875 13.3125H25.0938C25.475 13.3125 25.8406 13.464 26.1102 13.7335C26.3798 14.0031 26.5312 14.3688 26.5312 14.75V17.6681L30.4269 14.8866C30.5341 14.8102 30.6603 14.7647 30.7917 14.7552C30.923 14.7457 31.0545 14.7724 31.1717 14.8325C31.2888 14.8925 31.3873 14.9837 31.4562 15.0959C31.5251 15.2081 31.5619 15.3371 31.5625 15.4688V25.5312C31.5619 25.6629 31.5251 25.7919 31.4562 25.9041C31.3873 26.0163 31.2888 26.1075 31.1717 26.1675C31.0545 26.2276 30.923 26.2543 30.7917 26.2448C30.6603 26.2353 30.5341 26.1898 30.4269 26.1134L26.5312 23.3319V26.25C26.5312 26.6312 26.3798 26.9969 26.1102 27.2665C25.8406 27.536 25.475 27.6875 25.0938 27.6875Z" fill="white"/>
</svg>
