<svg width="25" height="25" viewBox="0 0 25 25" fill="none" xmlns="http://www.w3.org/2000/svg">
<path d="M22.9166 11.3749L20.0624 9.71868C22.8124 7.37493 20.052 2.99993 16.7499 4.48951L15.8437 4.87493L15.7291 3.87493C15.6249 2.74993 15.0416 1.94784 14.2708 1.47909C12.5624 0.486386 9.95825 1.16659 9.54158 3.64576L6.677 1.99993C5.677 1.41659 4.40617 1.76034 3.83325 2.76034L2.79159 4.56243C2.49992 5.06243 2.677 5.69784 3.177 5.98951L11.2916 10.677L12.8541 7.96868L14.6562 9.01034L13.0937 11.7187L21.2083 16.4062C21.7083 16.6666 22.3541 16.5208 22.6353 16.0208L23.677 14.2187C24.2499 13.2187 23.9166 11.9478 22.9166 11.3749ZM12.8853 5.20826C11.9791 5.46868 11.2499 4.49993 11.7083 3.69784C11.9791 3.19784 12.6353 3.03118 13.1353 3.31243C13.9374 3.78118 13.7812 4.98951 12.8853 5.20826ZM18.2916 8.33326C17.3958 8.59368 16.6666 7.62493 17.1249 6.82284C17.4062 6.32284 18.052 6.15618 18.5416 6.43743C19.3437 6.90618 19.1874 8.11451 18.2916 8.33326ZM21.7395 17.5833C22.1666 17.5833 22.5728 17.4374 22.9166 17.1874V20.8333C22.9166 21.9895 21.9895 22.9166 20.8333 22.9166H4.16659C3.61405 22.9166 3.08415 22.6971 2.69345 22.3064C2.30275 21.9157 2.08325 21.3858 2.08325 20.8333V11.4583H10.5728L11.4583 11.9791V20.8333H13.5416V13.177L20.6978 17.302C21.0103 17.4895 21.3541 17.5833 21.7395 17.5833Z" fill="white"/>
</svg>
