<svg width="23" height="23" viewBox="0 0 23 23" fill="none" xmlns="http://www.w3.org/2000/svg">
<path d="M12.1709 14.6626L14.6626 12.1709C14.8383 11.9952 14.9261 11.7716 14.9261 11.5001C14.9261 11.2286 14.8383 11.0049 14.6626 10.8292L12.147 8.31362C11.9713 8.13793 11.7518 8.05391 11.4886 8.06158C11.2247 8.06989 11.0049 8.16189 10.8292 8.33758C10.6536 8.51328 10.5657 8.73689 10.5657 9.00841C10.5657 9.27994 10.6536 9.50355 10.8292 9.67925L11.6917 10.5417H8.60112C8.3296 10.5417 8.10598 10.6334 7.93029 10.8168C7.75459 11.0008 7.66675 11.2286 7.66675 11.5001C7.66675 11.7716 7.75875 11.9991 7.94275 12.1824C8.12611 12.3664 8.35355 12.4584 8.62508 12.4584H11.6917L10.8053 13.3449C10.6296 13.5206 10.5456 13.7403 10.5532 14.0042C10.5616 14.2674 10.6536 14.4869 10.8292 14.6626C11.0049 14.8383 11.2286 14.9261 11.5001 14.9261C11.7716 14.9261 11.9952 14.8383 12.1709 14.6626ZM11.5001 21.0834C10.1744 21.0834 8.92855 20.8317 7.76258 20.3282C6.59661 19.8254 5.58237 19.1428 4.71987 18.2803C3.85737 17.4178 3.17472 16.4036 2.67191 15.2376C2.16847 14.0716 1.91675 12.8258 1.91675 11.5001C1.91675 10.1744 2.16847 8.92855 2.67191 7.76258C3.17472 6.59661 3.85737 5.58237 4.71987 4.71987C5.58237 3.85737 6.59661 3.1744 7.76258 2.67096C8.92855 2.16815 10.1744 1.91675 11.5001 1.91675C12.8258 1.91675 14.0716 2.16815 15.2376 2.67096C16.4036 3.1744 17.4178 3.85737 18.2803 4.71987C19.1428 5.58237 19.8254 6.59661 20.3282 7.76258C20.8317 8.92855 21.0834 10.1744 21.0834 11.5001C21.0834 12.8258 20.8317 14.0716 20.3282 15.2376C19.8254 16.4036 19.1428 17.4178 18.2803 18.2803C17.4178 19.1428 16.4036 19.8254 15.2376 20.3282C14.0716 20.8317 12.8258 21.0834 11.5001 21.0834Z" fill="black" fill-opacity="0.5"/>
</svg>
