<svg width="21" height="21" viewBox="0 0 21 21" fill="none" xmlns="http://www.w3.org/2000/svg">
<path d="M18.375 14.875H2.625V4.375H18.375M18.375 2.625H2.625C1.6625 2.625 0.875 3.4125 0.875 4.375V14.875C0.875 15.3391 1.05937 15.7842 1.38756 16.1124C1.71575 16.4406 2.16087 16.625 2.625 16.625H7V18.375H14V16.625H18.375C19.3463 16.625 20.125 15.8462 20.125 14.875V4.375C20.125 3.91087 19.9406 3.46575 19.6124 3.13756C19.2842 2.80937 18.8391 2.625 18.375 2.625ZM13.125 5.6875L12.5825 6.88625L11.375 7.4375L12.5825 7.98875L13.125 9.1875L13.6763 7.98875L14.875 7.4375L13.6763 6.88625L13.125 5.6875ZM9.1875 7.4375L8.23375 9.54625L6.125 10.5L8.23375 11.4538L9.1875 13.5625L10.15 11.4538L12.25 10.5L10.15 9.54625L9.1875 7.4375Z" fill="#FE6637"/>
</svg>
