<svg width="17" height="17" viewBox="0 0 17 17" fill="none" xmlns="http://www.w3.org/2000/svg">
<path fill-rule="evenodd" clip-rule="evenodd" d="M0.11084 8.49997C0.11084 6.27504 0.994693 4.14123 2.56796 2.56796C4.14123 0.994693 6.27504 0.11084 8.49997 0.11084C10.7249 0.11084 12.8587 0.994693 14.432 2.56796C16.0053 4.14123 16.8891 6.27504 16.8891 8.49997C16.8891 10.7249 16.0053 12.8587 14.432 14.432C12.8587 16.0053 10.7249 16.8891 8.49997 16.8891C6.27504 16.8891 4.14123 16.0053 2.56796 14.432C0.994693 12.8587 0.11084 10.7249 0.11084 8.49997ZM8.49997 1.31417C6.59418 1.31417 4.76644 2.07125 3.41885 3.41885C2.07125 4.76644 1.31417 6.59418 1.31417 8.49997C1.31417 10.4058 2.07125 12.2335 3.41885 13.5811C4.76644 14.9287 6.59418 15.6858 8.49997 15.6858C10.4058 15.6858 12.2335 14.9287 13.5811 13.5811C14.9287 12.2335 15.6858 10.4058 15.6858 8.49997C15.6858 6.59418 14.9287 4.76644 13.5811 3.41885C12.2335 2.07125 10.4058 1.31417 8.49997 1.31417ZM11.4817 5.51951C11.6004 5.63827 11.6671 5.79934 11.6671 5.96727C11.6671 6.13521 11.6004 6.29627 11.4817 6.41504L9.39551 8.49997L11.4817 10.5849C11.6006 10.7038 11.6674 10.8651 11.6674 11.0333C11.6674 11.2015 11.6006 11.3628 11.4817 11.4817C11.3628 11.6006 11.2015 11.6674 11.0333 11.6674C10.8651 11.6674 10.7038 11.6006 10.5849 11.4817L8.49997 9.39551L6.41504 11.4817C6.35616 11.5406 6.28625 11.5873 6.20931 11.6192C6.13238 11.651 6.04992 11.6674 5.96664 11.6674C5.88336 11.6674 5.8009 11.651 5.72397 11.6192C5.64703 11.5873 5.57712 11.5406 5.51824 11.4817C5.45936 11.4228 5.41264 11.3529 5.38078 11.276C5.34891 11.199 5.33251 11.1166 5.33251 11.0333C5.33251 10.95 5.34891 10.8676 5.38078 10.7906C5.41264 10.7137 5.45936 10.6438 5.51824 10.5849L7.60444 8.49997L5.51824 6.41504C5.39932 6.29612 5.33251 6.13482 5.33251 5.96664C5.33251 5.79846 5.39932 5.63716 5.51824 5.51824C5.63716 5.39932 5.79846 5.33251 5.96664 5.33251C6.13482 5.33251 6.29612 5.39932 6.41504 5.51824L8.49997 7.60444L10.5849 5.51824C10.6437 5.45926 10.7136 5.41247 10.7906 5.38054C10.8675 5.34861 10.95 5.33217 11.0333 5.33217C11.1166 5.33217 11.1991 5.34861 11.276 5.38054C11.353 5.41247 11.4229 5.45926 11.4817 5.51824V5.51951Z" fill="black" fill-opacity="0.6"/>
</svg>
