<svg width="34" height="32" viewBox="0 0 34 32" fill="none" xmlns="http://www.w3.org/2000/svg">
<path d="M25.3332 20.3333H15.2915C14.8193 20.3333 14.4304 20.1733 14.1248 19.8533C13.8193 19.5344 13.6665 19.1389 13.6665 18.6666C13.6665 18.1944 13.8259 17.7983 14.1448 17.4783C14.4648 17.1594 14.8609 17 15.3332 17H25.3748C25.8471 17 26.2359 17.1594 26.5415 17.4783C26.8471 17.7983 26.9998 18.1944 26.9998 18.6666C26.9998 19.1389 26.8404 19.5344 26.5215 19.8533C26.2015 20.1733 25.8054 20.3333 25.3332 20.3333ZM25.3332 15.3333H8.62484C8.15262 15.3333 7.76373 15.1733 7.45817 14.8533C7.15261 14.5344 6.99984 14.1389 6.99984 13.6666C6.99984 13.1944 7.15984 12.7983 7.47984 12.4783C7.79873 12.1594 8.19428 12 8.6665 12H25.3748C25.8471 12 26.2359 12.1594 26.5415 12.4783C26.8471 12.7983 26.9998 13.1944 26.9998 13.6666C26.9998 14.1389 26.8404 14.5344 26.5215 14.8533C26.2015 15.1733 25.8054 15.3333 25.3332 15.3333ZM25.3332 10.3333H8.62484C8.15262 10.3333 7.76373 10.1739 7.45817 9.85498C7.15261 9.53498 6.99984 9.13887 6.99984 8.66665C6.99984 8.19442 7.15984 7.79831 7.47984 7.47831C7.79873 7.15942 8.19428 6.99998 8.6665 6.99998H25.3748C25.8471 6.99998 26.2359 7.15942 26.5415 7.47831C26.8471 7.79831 26.9998 8.19442 26.9998 8.66665C26.9998 9.13887 26.8404 9.53498 26.5215 9.85498C26.2015 10.1739 25.8054 10.3333 25.3332 10.3333ZM33.6665 29.625V3.66665C33.6665 2.74998 33.3398 1.96498 32.6865 1.31165C32.0343 0.659424 31.2498 0.333313 30.3332 0.333313H3.6665C2.74984 0.333313 1.96484 0.659424 1.3115 1.31165C0.659283 1.96498 0.333172 2.74998 0.333172 3.66665V23.6666C0.333172 24.5833 0.659283 25.3683 1.3115 26.0216C1.96484 26.6739 2.74984 27 3.6665 27H26.9998L30.8332 30.8333C31.3609 31.3611 31.9654 31.4789 32.6465 31.1866C33.3265 30.8955 33.6665 30.375 33.6665 29.625ZM30.3332 25.625L28.3748 23.6666H3.6665V3.66665H30.3332V25.625Z" fill="#0077FF"/>
</svg>
