<svg width="23" height="23" viewBox="0 0 23 23" fill="none" xmlns="http://www.w3.org/2000/svg">
<path d="M4.79167 21.0834C4.26458 21.0834 3.81321 20.8959 3.43754 20.5209C3.06251 20.1452 2.875 19.6938 2.875 19.1667V5.75008H4.79167V19.1667H15.3333V21.0834H4.79167ZM8.625 17.2501C8.09792 17.2501 7.64686 17.0626 7.27183 16.6875C6.89617 16.3119 6.70833 15.8605 6.70833 15.3334V3.83341C6.70833 3.30633 6.89617 2.85496 7.27183 2.47929C7.64686 2.10426 8.09792 1.91675 8.625 1.91675H17.25C17.7771 1.91675 18.2285 2.10426 18.6041 2.47929C18.9792 2.85496 19.1667 3.30633 19.1667 3.83341V15.3334C19.1667 15.8605 18.9792 16.3119 18.6041 16.6875C18.2285 17.0626 17.7771 17.2501 17.25 17.2501H8.625Z" fill="#2A5885"/>
</svg>
