<svg width="23" height="23" viewBox="0 0 23 23" fill="none" xmlns="http://www.w3.org/2000/svg">
<path d="M2.5 20.5H20.5V22.75H2.5V20.5ZM21.625 3.625C21.3266 3.625 21.0405 3.74353 20.8295 3.9545C20.6185 4.16548 20.5 4.45163 20.5 4.75C20.5002 4.87793 20.5246 5.00467 20.572 5.1235C20.6184 5.2384 20.6817 5.34572 20.7599 5.44187L18.3749 7.34538L15.9933 9.25L14.02 5.79288L12.049 2.33687C12.2181 2.24087 12.3607 2.10442 12.4641 1.93975C12.5697 1.77031 12.6254 1.57461 12.625 1.375C12.625 1.07663 12.5065 0.790483 12.2955 0.579505C12.0845 0.368526 11.7984 0.25 11.5 0.25C11.2016 0.25 10.9155 0.368526 10.7045 0.579505C10.4935 0.790483 10.375 1.07663 10.375 1.375C10.3746 1.57461 10.4303 1.77031 10.5359 1.93975C10.6393 2.10439 10.7819 2.24083 10.951 2.33687L8.97663 5.79288L7.00225 9.25L4.62175 7.3465L2.24013 5.44187C2.31828 5.34572 2.38161 5.2384 2.428 5.1235C2.47541 5.00467 2.49984 4.87793 2.5 4.75C2.5 4.5275 2.43402 4.30999 2.3104 4.12498C2.18679 3.93998 2.01109 3.79578 1.80552 3.71064C1.59995 3.62549 1.37375 3.60321 1.15552 3.64662C0.937295 3.69002 0.73684 3.79717 0.579505 3.9545C0.422171 4.11184 0.315025 4.31229 0.271617 4.53052C0.228209 4.74875 0.250487 4.97495 0.335636 5.18052C0.420785 5.38609 0.564979 5.56179 0.749984 5.6854C0.93499 5.80902 1.1525 5.875 1.375 5.875C1.39067 5.87457 1.4062 5.87192 1.42113 5.86713C1.43609 5.86185 1.45154 5.85808 1.46725 5.85588L1.98363 12.0535L2.5 18.25H20.5L21.0164 12.0535L21.5327 5.85588C21.5481 5.85815 21.5632 5.86192 21.5778 5.86713C21.593 5.87203 21.609 5.87468 21.625 5.875C21.9234 5.875 22.2095 5.75647 22.4205 5.5455C22.6315 5.33452 22.75 5.04837 22.75 4.75C22.75 4.45163 22.6315 4.16548 22.4205 3.9545C22.2095 3.74353 21.9234 3.625 21.625 3.625Z" fill="url(#paint0_linear_0_4774)"/>
<defs>
<linearGradient id="paint0_linear_0_4774" x1="11.5" y1="0.25" x2="11.5" y2="22.75" gradientUnits="userSpaceOnUse">
<stop stop-color="#FFA900"/>
<stop offset="0.567708" stop-color="#FABB67"/>
<stop offset="1" stop-color="#FA7A04"/>
</linearGradient>
</defs>
</svg>
