<svg width="19" height="19" viewBox="0 0 19 19" fill="none" xmlns="http://www.w3.org/2000/svg">
<g clip-path="url(#clip0_0_7141)">
<path d="M10.5111 1.41086L9.5 4.37755L8.48886 1.41086C8.43434 1.25019 8.41889 1.07883 8.44381 0.910995C8.46872 0.743159 8.53327 0.583676 8.63211 0.445763C8.73095 0.307849 8.86123 0.195476 9.01216 0.117956C9.16309 0.0404357 9.33033 0 9.5 0C9.66967 0 9.83691 0.0404357 9.98784 0.117956C10.1388 0.195476 10.2691 0.307849 10.3679 0.445763C10.4667 0.583676 10.5313 0.743159 10.5562 0.910995C10.5811 1.07883 10.5657 1.25019 10.5111 1.41086ZM1.41086 8.48886L4.37755 9.5L1.41086 10.5111C1.25019 10.5657 1.07883 10.5811 0.910995 10.5562C0.743159 10.5313 0.583676 10.4667 0.445763 10.3679C0.307849 10.2691 0.195476 10.1388 0.117956 9.98784C0.0404357 9.83691 0 9.66967 0 9.5C0 9.33033 0.0404357 9.16309 0.117956 9.01216C0.195476 8.86123 0.307849 8.73095 0.445763 8.63211C0.583676 8.53327 0.743159 8.46872 0.910995 8.44381C1.07883 8.41889 1.25019 8.43434 1.41086 8.48886ZM8.48886 17.5891L9.5 14.6224L10.5111 17.5891C10.5657 17.7498 10.5811 17.9212 10.5562 18.089C10.5313 18.2568 10.4667 18.4163 10.3679 18.5542C10.2691 18.6922 10.1388 18.8045 9.98784 18.882C9.83691 18.9596 9.66967 19 9.5 19C9.33033 19 9.16309 18.9596 9.01216 18.882C8.86123 18.8045 8.73095 18.6922 8.63211 18.5542C8.53327 18.4163 8.46872 18.2568 8.44381 18.089C8.41889 17.9212 8.43434 17.7498 8.48886 17.5891ZM17.5891 10.5091L14.6224 9.49798L17.5891 8.48684C17.7498 8.43231 17.9212 8.41687 18.089 8.44178C18.2568 8.46669 18.4163 8.53125 18.5542 8.63008C18.6922 8.72893 18.8045 8.85921 18.882 9.01014C18.9596 9.16107 19 9.3283 19 9.49798C19 9.66765 18.9596 9.83488 18.882 9.98581C18.8045 10.1367 18.6922 10.267 18.5542 10.3659C18.4163 10.4647 18.2568 10.5293 18.089 10.5542C17.9212 10.5791 17.7498 10.5636 17.5891 10.5091ZM4.49485 3.06509L5.87708 5.87708L3.06509 4.49485C2.91228 4.42007 2.77952 4.3099 2.67786 4.17349C2.5762 4.03708 2.50857 3.87837 2.4806 3.71056C2.45263 3.54275 2.46512 3.37069 2.51704 3.20868C2.56895 3.04667 2.65879 2.89939 2.77909 2.77909C2.89939 2.65879 3.04667 2.56895 3.20868 2.51704C3.37069 2.46512 3.54275 2.45263 3.71056 2.4806C3.87837 2.50857 4.03708 2.5762 4.17349 2.67786C4.3099 2.77952 4.42007 2.91228 4.49485 3.06509ZM3.06509 14.5041L5.87708 13.1219L4.49485 15.9339C4.42007 16.0867 4.3099 16.2195 4.17349 16.3211C4.03708 16.4228 3.87837 16.4904 3.71056 16.5184C3.54275 16.5464 3.37069 16.5339 3.20868 16.482C3.04667 16.43 2.89939 16.3402 2.77909 16.2199C2.65879 16.0996 2.56895 15.9523 2.51704 15.7903C2.46512 15.6283 2.45263 15.4562 2.4806 15.2884C2.50857 15.1206 2.5762 14.9619 2.67786 14.8255C2.77952 14.6891 2.91228 14.5789 3.06509 14.5041ZM14.5041 15.9339L13.1219 13.1219L15.9339 14.5041C16.0867 14.5789 16.2195 14.6891 16.3211 14.8255C16.4228 14.9619 16.4904 15.1206 16.5184 15.2884C16.5464 15.4562 16.5339 15.6283 16.482 15.7903C16.43 15.9523 16.3402 16.0996 16.2199 16.2199C16.0996 16.3402 15.9523 16.43 15.7903 16.482C15.6283 16.5339 15.4562 16.5464 15.2884 16.5184C15.1206 16.4904 14.9619 16.4228 14.8255 16.3211C14.6891 16.2195 14.5789 16.0867 14.5041 15.9339ZM15.9329 4.49282L13.1199 5.87607L14.5031 3.06307C14.5779 2.91026 14.6881 2.7775 14.8245 2.67584C14.9609 2.57418 15.1196 2.50655 15.2874 2.47858C15.4552 2.45061 15.6273 2.4631 15.7893 2.51501C15.9513 2.56693 16.0986 2.65677 16.2189 2.77707C16.3392 2.89737 16.429 3.04464 16.4809 3.20665C16.5329 3.36867 16.5453 3.54073 16.5174 3.70854C16.4894 3.87635 16.4218 4.03506 16.3201 4.17147C16.2185 4.30788 16.0857 4.41805 15.9329 4.49282ZM9.5 14.0501C6.99136 14.0501 4.94986 12.0086 4.94986 9.5C4.94986 6.99136 6.99136 4.94986 9.5 4.94986C12.0086 4.94986 14.0501 6.99136 14.0501 9.5C14.0501 12.0086 12.0086 14.0501 9.5 14.0501ZM9.5 6.97214C8.10563 6.97214 6.97214 8.10563 6.97214 9.5C6.97214 10.8944 8.10563 12.0279 9.5 12.0279C10.8944 12.0279 12.0279 10.8944 12.0279 9.5C12.0279 8.10563 10.8944 6.97214 9.5 6.97214Z" fill="black"/>
</g>
<defs>
<clipPath id="clip0_0_7141">
<rect width="19" height="19" fill="white"/>
</clipPath>
</defs>
</svg>
