<svg width="21" height="23" viewBox="0 0 21 23" fill="none" xmlns="http://www.w3.org/2000/svg">
<path d="M8.9375 3.6875H12.0625C12.0625 3.2731 11.8979 2.87567 11.6049 2.58265C11.3118 2.28962 10.9144 2.125 10.5 2.125C10.0856 2.125 9.68817 2.28962 9.39515 2.58265C9.10212 2.87567 8.9375 3.2731 8.9375 3.6875ZM7.375 3.6875C7.375 2.8587 7.70424 2.06384 8.29029 1.47779C8.87634 0.89174 9.6712 0.5625 10.5 0.5625C11.3288 0.5625 12.1237 0.89174 12.7097 1.47779C13.2958 2.06384 13.625 2.8587 13.625 3.6875H19.875C20.0822 3.6875 20.2809 3.76981 20.4274 3.91632C20.5739 4.06284 20.6562 4.26155 20.6562 4.46875C20.6562 4.67595 20.5739 4.87466 20.4274 5.02118C20.2809 5.16769 20.0822 5.25 19.875 5.25H18.9937L17.1109 19.0594C16.9832 19.9952 16.5208 20.8531 15.8092 21.4742C15.0976 22.0953 14.1851 22.4375 13.2406 22.4375H7.75937C6.81487 22.4375 5.90236 22.0953 5.19078 21.4742C4.47921 20.8531 4.01676 19.9952 3.88906 19.0594L2.00625 5.25H1.125C0.9178 5.25 0.719086 5.16769 0.572573 5.02118C0.42606 4.87466 0.34375 4.67595 0.34375 4.46875C0.34375 4.26155 0.42606 4.06284 0.572573 3.91632C0.719086 3.76981 0.9178 3.6875 1.125 3.6875H7.375ZM8.9375 9.15625C8.9375 8.94905 8.85519 8.75034 8.70868 8.60382C8.56216 8.45731 8.36345 8.375 8.15625 8.375C7.94905 8.375 7.75034 8.45731 7.60382 8.60382C7.45731 8.75034 7.375 8.94905 7.375 9.15625V16.9688C7.375 17.176 7.45731 17.3747 7.60382 17.5212C7.75034 17.6677 7.94905 17.75 8.15625 17.75C8.36345 17.75 8.56216 17.6677 8.70868 17.5212C8.85519 17.3747 8.9375 17.176 8.9375 16.9688V9.15625ZM12.8438 8.375C13.051 8.375 13.2497 8.45731 13.3962 8.60382C13.5427 8.75034 13.625 8.94905 13.625 9.15625V16.9688C13.625 17.176 13.5427 17.3747 13.3962 17.5212C13.2497 17.6677 13.051 17.75 12.8438 17.75C12.6365 17.75 12.4378 17.6677 12.2913 17.5212C12.1448 17.3747 12.0625 17.176 12.0625 16.9688V9.15625C12.0625 8.94905 12.1448 8.75034 12.2913 8.60382C12.4378 8.45731 12.6365 8.375 12.8438 8.375ZM5.4375 18.8484C5.51418 19.4098 5.79163 19.9244 6.21851 20.297C6.64538 20.6696 7.19277 20.8749 7.75937 20.875H13.2406C13.8075 20.8753 14.3553 20.6701 14.7825 20.2975C15.2097 19.9249 15.4873 19.4101 15.5641 18.8484L17.4172 5.25H3.58281L5.4375 18.8484Z" fill="white"/>
</svg>
