<svg width="21" height="21" viewBox="0 0 21 21" fill="none" xmlns="http://www.w3.org/2000/svg">
<path d="M9.1875 3.9375H11.8125C11.8125 3.5894 11.6742 3.25556 11.4281 3.00942C11.1819 2.76328 10.8481 2.625 10.5 2.625C10.1519 2.625 9.81806 2.76328 9.57192 3.00942C9.32578 3.25556 9.1875 3.5894 9.1875 3.9375ZM7.875 3.9375C7.875 3.24131 8.15156 2.57363 8.64384 2.08134C9.13613 1.58906 9.80381 1.3125 10.5 1.3125C11.1962 1.3125 11.8639 1.58906 12.3562 2.08134C12.8484 2.57363 13.125 3.24131 13.125 3.9375H18.375C18.549 3.9375 18.716 4.00664 18.839 4.12971C18.9621 4.25278 19.0312 4.4197 19.0312 4.59375C19.0312 4.7678 18.9621 4.93472 18.839 5.05779C18.716 5.18086 18.549 5.25 18.375 5.25H17.6347L16.0532 16.8499C15.9459 17.636 15.5575 18.3566 14.9597 18.8783C14.362 19.4 13.5955 19.6875 12.8021 19.6875H8.19787C7.40449 19.6875 6.63798 19.4 6.04026 18.8783C5.44253 18.3566 5.05408 17.636 4.94681 16.8499L3.36525 5.25H2.625C2.45095 5.25 2.28403 5.18086 2.16096 5.05779C2.03789 4.93472 1.96875 4.7678 1.96875 4.59375C1.96875 4.4197 2.03789 4.25278 2.16096 4.12971C2.28403 4.00664 2.45095 3.9375 2.625 3.9375H7.875ZM9.1875 8.53125C9.1875 8.3572 9.11836 8.19028 8.99529 8.06721C8.87222 7.94414 8.7053 7.875 8.53125 7.875C8.3572 7.875 8.19028 7.94414 8.06721 8.06721C7.94414 8.19028 7.875 8.3572 7.875 8.53125V15.0938C7.875 15.2678 7.94414 15.4347 8.06721 15.5578C8.19028 15.6809 8.3572 15.75 8.53125 15.75C8.7053 15.75 8.87222 15.6809 8.99529 15.5578C9.11836 15.4347 9.1875 15.2678 9.1875 15.0938V8.53125ZM12.4688 7.875C12.6428 7.875 12.8097 7.94414 12.9328 8.06721C13.0559 8.19028 13.125 8.3572 13.125 8.53125V15.0938C13.125 15.2678 13.0559 15.4347 12.9328 15.5578C12.8097 15.6809 12.6428 15.75 12.4688 15.75C12.2947 15.75 12.1278 15.6809 12.0047 15.5578C11.8816 15.4347 11.8125 15.2678 11.8125 15.0938V8.53125C11.8125 8.3572 11.8816 8.19028 12.0047 8.06721C12.1278 7.94414 12.2947 7.875 12.4688 7.875ZM6.2475 16.6727C6.31191 17.1443 6.54497 17.5765 6.90354 17.8895C7.26212 18.2025 7.72193 18.3749 8.19787 18.375H12.8021C13.2783 18.3753 13.7384 18.2029 14.0973 17.8899C14.4561 17.5769 14.6894 17.1445 14.7538 16.6727L16.3104 5.25H4.68956L6.2475 16.6727Z" fill="#7A7777"/>
</svg>
