<svg width="25" height="25" viewBox="0 0 25 25" fill="none" xmlns="http://www.w3.org/2000/svg">
<path d="M10.9375 4.6875H14.0625C14.0625 4.2731 13.8979 3.87567 13.6049 3.58265C13.3118 3.28962 12.9144 3.125 12.5 3.125C12.0856 3.125 11.6882 3.28962 11.3951 3.58265C11.1021 3.87567 10.9375 4.2731 10.9375 4.6875ZM9.375 4.6875C9.375 3.8587 9.70424 3.06384 10.2903 2.47779C10.8763 1.89174 11.6712 1.5625 12.5 1.5625C13.3288 1.5625 14.1237 1.89174 14.7097 2.47779C15.2958 3.06384 15.625 3.8587 15.625 4.6875H21.875C22.0822 4.6875 22.2809 4.76981 22.4274 4.91632C22.5739 5.06284 22.6562 5.26155 22.6562 5.46875C22.6562 5.67595 22.5739 5.87466 22.4274 6.02118C22.2809 6.16769 22.0822 6.25 21.875 6.25H20.9937L19.1109 20.0594C18.9832 20.9952 18.5208 21.8531 17.8092 22.4742C17.0976 23.0953 16.1851 23.4375 15.2406 23.4375H9.75937C8.81487 23.4375 7.90236 23.0953 7.19078 22.4742C6.47921 21.8531 6.01676 20.9952 5.88906 20.0594L4.00625 6.25H3.125C2.9178 6.25 2.71909 6.16769 2.57257 6.02118C2.42606 5.87466 2.34375 5.67595 2.34375 5.46875C2.34375 5.26155 2.42606 5.06284 2.57257 4.91632C2.71909 4.76981 2.9178 4.6875 3.125 4.6875H9.375ZM10.9375 10.1562C10.9375 9.94905 10.8552 9.75034 10.7087 9.60382C10.5622 9.45731 10.3635 9.375 10.1562 9.375C9.94905 9.375 9.75034 9.45731 9.60382 9.60382C9.45731 9.75034 9.375 9.94905 9.375 10.1562V17.9688C9.375 18.176 9.45731 18.3747 9.60382 18.5212C9.75034 18.6677 9.94905 18.75 10.1562 18.75C10.3635 18.75 10.5622 18.6677 10.7087 18.5212C10.8552 18.3747 10.9375 18.176 10.9375 17.9688V10.1562ZM14.8438 9.375C15.051 9.375 15.2497 9.45731 15.3962 9.60382C15.5427 9.75034 15.625 9.94905 15.625 10.1562V17.9688C15.625 18.176 15.5427 18.3747 15.3962 18.5212C15.2497 18.6677 15.051 18.75 14.8438 18.75C14.6365 18.75 14.4378 18.6677 14.2913 18.5212C14.1448 18.3747 14.0625 18.176 14.0625 17.9688V10.1562C14.0625 9.94905 14.1448 9.75034 14.2913 9.60382C14.4378 9.45731 14.6365 9.375 14.8438 9.375ZM7.4375 19.8484C7.51418 20.4098 7.79163 20.9244 8.21851 21.297C8.64538 21.6696 9.19277 21.8749 9.75937 21.875H15.2406C15.8075 21.8753 16.3553 21.6701 16.7825 21.2975C17.2097 20.9249 17.4873 20.4101 17.5641 19.8484L19.4172 6.25H5.58281L7.4375 19.8484Z" fill="#535353"/>
</svg>
