<svg width="21" height="21" viewBox="0 0 21 21" fill="none" xmlns="http://www.w3.org/2000/svg">
<path d="M10.5 1.3125C12.9367 1.3125 15.2736 2.28047 16.9965 4.00346C18.7195 5.72645 19.6875 8.06332 19.6875 10.5C19.6875 12.9367 18.7195 15.2736 16.9965 16.9965C15.2736 18.7195 12.9367 19.6875 10.5 19.6875C8.06332 19.6875 5.72645 18.7195 4.00346 16.9965C2.28047 15.2736 1.3125 12.9367 1.3125 10.5C1.3125 8.06332 2.28047 5.72645 4.00346 4.00346C5.72645 2.28047 8.06332 1.3125 10.5 1.3125ZM10.5 18.375C12.5886 18.375 14.5916 17.5453 16.0685 16.0685C17.5453 14.5916 18.375 12.5886 18.375 10.5C18.375 8.41142 17.5453 6.40838 16.0685 4.93153C14.5916 3.45468 12.5886 2.625 10.5 2.625C8.41142 2.625 6.40838 3.45468 4.93153 4.93153C3.45468 6.40838 2.625 8.41142 2.625 10.5C2.625 12.5886 3.45468 14.5916 4.93153 16.0685C6.40838 17.5453 8.41142 18.375 10.5 18.375ZM9.51562 13.2969L13.7117 10.5L9.51562 7.70306V13.2969ZM9.7335 6.26981L14.8496 9.681C14.9844 9.7709 15.095 9.89268 15.1714 10.0356C15.2479 10.1784 15.2879 10.338 15.2879 10.5C15.2879 10.662 15.2479 10.8216 15.1714 10.9644C15.095 11.1073 14.9844 11.2291 14.8496 11.319L9.7335 14.7302C9.58526 14.829 9.41297 14.8857 9.23502 14.8943C9.05706 14.9029 8.88011 14.8631 8.72303 14.779C8.56595 14.695 8.43462 14.5698 8.34306 14.417C8.2515 14.2642 8.20314 14.0893 8.20312 13.9112V7.0875C8.20314 6.90934 8.2515 6.73452 8.34306 6.58168C8.43462 6.42885 8.56595 6.30373 8.72303 6.21967C8.88011 6.1356 9.05706 6.09574 9.23502 6.10434C9.41297 6.11294 9.58526 6.16968 9.7335 6.2685V6.26981Z" fill="#7A3AAC"/>
</svg>
