<svg width="21" height="21" viewBox="0 0 21 21" fill="none" xmlns="http://www.w3.org/2000/svg">
<path d="M18.305 13.6675C18.2607 13.5615 18.1985 13.4638 18.1212 13.3787L15.4962 10.7537C15.3315 10.589 15.108 10.4964 14.875 10.4964C14.642 10.4964 14.4185 10.589 14.2538 10.7537C14.089 10.9185 13.9964 11.142 13.9964 11.375C13.9964 11.608 14.089 11.8315 14.2538 11.9963L15.3913 13.125H10.5C10.2679 13.125 10.0454 13.2172 9.88128 13.3813C9.71719 13.5454 9.625 13.7679 9.625 14C9.625 14.2321 9.71719 14.4546 9.88128 14.6187C10.0454 14.7828 10.2679 14.875 10.5 14.875H15.3913L14.2538 16.0038C14.1717 16.0851 14.1066 16.1819 14.0622 16.2885C14.0178 16.3951 13.9949 16.5095 13.9949 16.625C13.9949 16.7405 14.0178 16.8549 14.0622 16.9615C14.1066 17.0681 14.1717 17.1649 14.2538 17.2462C14.3351 17.3283 14.4319 17.3934 14.5385 17.4378C14.6451 17.4822 14.7595 17.5051 14.875 17.5051C14.9905 17.5051 15.1049 17.4822 15.2115 17.4378C15.3181 17.3934 15.4149 17.3283 15.4962 17.2462L18.1212 14.6212C18.2023 14.5391 18.2649 14.4407 18.305 14.3325C18.3925 14.1195 18.3925 13.8805 18.305 13.6675ZM12.25 17.5H5.25C5.01794 17.5 4.79538 17.4078 4.63128 17.2437C4.46719 17.0796 4.375 16.8571 4.375 16.625V4.375C4.375 4.14294 4.46719 3.92038 4.63128 3.75628C4.79538 3.59219 5.01794 3.5 5.25 3.5H9.625V6.125C9.625 6.82119 9.90156 7.48887 10.3938 7.98116C10.8861 8.47344 11.5538 8.75 12.25 8.75H15.75C15.9227 8.74914 16.0914 8.69716 16.2346 8.60062C16.3779 8.50408 16.4894 8.36729 16.555 8.2075C16.622 8.04815 16.6403 7.87253 16.6076 7.70279C16.5749 7.53305 16.4927 7.3768 16.3712 7.25375L11.1213 2.00375C11.0489 1.93569 10.9662 1.87957 10.8763 1.8375H10.7975L10.5525 1.75H5.25C4.55381 1.75 3.88613 2.02656 3.39384 2.51884C2.90156 3.01113 2.625 3.67881 2.625 4.375V16.625C2.625 17.3212 2.90156 17.9889 3.39384 18.4812C3.88613 18.9734 4.55381 19.25 5.25 19.25H12.25C12.4821 19.25 12.7046 19.1578 12.8687 18.9937C13.0328 18.8296 13.125 18.6071 13.125 18.375C13.125 18.1429 13.0328 17.9204 12.8687 17.7563C12.7046 17.5922 12.4821 17.5 12.25 17.5ZM11.375 4.73375L13.6413 7H12.25C12.0179 7 11.7954 6.90781 11.6313 6.74372C11.4672 6.57962 11.375 6.35706 11.375 6.125V4.73375Z" fill="#7A7777"/>
</svg>
