<svg width="21" height="21" viewBox="0 0 21 21" fill="none" xmlns="http://www.w3.org/2000/svg">
<g clip-path="url(#clip0_0_3503)">
<path fill-rule="evenodd" clip-rule="evenodd" d="M11.8878 1.75C12.2986 1.7501 12.6963 1.89475 13.0112 2.15863L13.125 2.26275L16.9872 6.125C17.2778 6.41552 17.4568 6.79899 17.493 7.20825L17.5 7.36225V17.5C17.5001 17.9415 17.3334 18.3667 17.0332 18.6905C16.733 19.0142 16.3215 19.2125 15.8812 19.2456L15.75 19.25H10.5V17.5H15.75V8.75H11.8125C11.4862 8.74998 11.1717 8.62845 10.9301 8.40908C10.6886 8.18972 10.5374 7.88827 10.5061 7.5635L10.5 7.4375V3.5H5.25V10.5H3.5V3.5C3.49986 3.0585 3.66661 2.63325 3.96681 2.30952C4.26701 1.98579 4.67849 1.78749 5.11875 1.75438L5.25 1.75H11.8878ZM6.74362 12.656L9.219 15.1314C9.38304 15.2955 9.47519 15.518 9.47519 15.75C9.47519 15.982 9.38304 16.2045 9.219 16.3686L6.74362 18.8431C6.66291 18.9267 6.56636 18.9934 6.4596 19.0392C6.35285 19.0851 6.23803 19.1092 6.12185 19.1102C6.00567 19.1112 5.89045 19.0891 5.78292 19.0451C5.67538 19.0011 5.57769 18.9361 5.49553 18.854C5.41337 18.7718 5.3484 18.6741 5.30441 18.5666C5.26041 18.4591 5.23827 18.3438 5.23928 18.2276C5.24029 18.1115 5.26443 17.9966 5.31029 17.8899C5.35614 17.7831 5.4228 17.6866 5.50638 17.6059L6.48725 16.625H2.625C2.39294 16.625 2.17038 16.5328 2.00628 16.3687C1.84219 16.2046 1.75 15.9821 1.75 15.75C1.75 15.5179 1.84219 15.2954 2.00628 15.1313C2.17038 14.9672 2.39294 14.875 2.625 14.875H6.48725L5.50638 13.8941C5.42508 13.8129 5.36058 13.7164 5.31656 13.6103C5.27254 13.5041 5.24986 13.3903 5.24982 13.2754C5.24974 13.0433 5.34187 12.8206 5.50594 12.6564C5.67001 12.4923 5.89258 12.4 6.12469 12.3999C6.23962 12.3998 6.35343 12.4224 6.45963 12.4664C6.56583 12.5103 6.66233 12.5748 6.74362 12.656ZM12.25 3.86225V7H15.3878L12.25 3.86225Z" fill="#7A7777"/>
</g>
<defs>
<clipPath id="clip0_0_3503">
<rect width="21" height="21" fill="white"/>
</clipPath>
</defs>
</svg>
