<svg width="21" height="21" viewBox="0 0 21 21" fill="none" xmlns="http://www.w3.org/2000/svg">
<path d="M9.19231 3.71429H11.8077C11.8077 3.35435 11.6699 3.00915 11.4247 2.75464C11.1794 2.50013 10.8468 2.35714 10.5 2.35714C10.1532 2.35714 9.82056 2.50013 9.57532 2.75464C9.33008 3.00915 9.19231 3.35435 9.19231 3.71429ZM7.88462 3.71429C7.88462 2.99441 8.16016 2.30402 8.65064 1.795C9.14112 1.28597 9.80636 1 10.5 1C11.1936 1 11.8589 1.28597 12.3494 1.795C12.8398 2.30402 13.1154 2.99441 13.1154 3.71429H18.3462C18.5196 3.71429 18.6859 3.78578 18.8085 3.91303C18.9311 4.04029 19 4.21289 19 4.39286C19 4.57283 18.9311 4.74542 18.8085 4.87268C18.6859 4.99994 18.5196 5.07143 18.3462 5.07143H17.6086L16.0328 17.0659C15.926 17.8787 15.5389 18.6238 14.9434 19.1633C14.3479 19.7027 13.5842 20 12.7937 20H8.20631C7.41583 20 6.65213 19.7027 6.05659 19.1633C5.46106 18.6238 5.07403 17.8787 4.96715 17.0659L3.39138 5.07143H2.65385C2.48044 5.07143 2.31413 4.99994 2.19151 4.87268C2.06889 4.74542 2 4.57283 2 4.39286C2 4.21289 2.06889 4.04029 2.19151 3.91303C2.31413 3.78578 2.48044 3.71429 2.65385 3.71429H7.88462ZM9.19231 8.46429C9.19231 8.28432 9.12342 8.11172 9.0008 7.98446C8.87818 7.85721 8.71187 7.78571 8.53846 7.78571C8.36505 7.78571 8.19874 7.85721 8.07612 7.98446C7.9535 8.11172 7.88462 8.28432 7.88462 8.46429V15.25C7.88462 15.43 7.9535 15.6026 8.07612 15.7298C8.19874 15.8571 8.36505 15.9286 8.53846 15.9286C8.71187 15.9286 8.87818 15.8571 9.0008 15.7298C9.12342 15.6026 9.19231 15.43 9.19231 15.25V8.46429ZM12.4615 7.78571C12.6349 7.78571 12.8013 7.85721 12.9239 7.98446C13.0465 8.11172 13.1154 8.28432 13.1154 8.46429V15.25C13.1154 15.43 13.0465 15.6026 12.9239 15.7298C12.8013 15.8571 12.6349 15.9286 12.4615 15.9286C12.2881 15.9286 12.1218 15.8571 11.9992 15.7298C11.8766 15.6026 11.8077 15.43 11.8077 15.25V8.46429C11.8077 8.28432 11.8766 8.11172 11.9992 7.98446C12.1218 7.85721 12.2881 7.78571 12.4615 7.78571ZM6.26308 16.8826C6.32725 17.3702 6.55946 17.8172 6.91672 18.1408C7.27398 18.4644 7.7321 18.6428 8.20631 18.6429H12.7937C13.2681 18.6431 13.7266 18.4649 14.0841 18.1413C14.4416 17.8176 14.674 17.3705 14.7382 16.8826L16.2892 5.07143H4.71085L6.26308 16.8826Z" fill="#FF0000"/>
</svg>
