<svg width="40" height="40" viewBox="0 0 40 40" fill="none" xmlns="http://www.w3.org/2000/svg">
<g clip-path="url(#clip0_0_4714)">
<path d="M24.3066 0.822877C24.0707 0.589874 23.752 0.460096 23.4205 0.462093C23.089 0.464091 22.7718 0.597701 22.5388 0.83353L9.06785 14.4678C8.36884 15.1753 7.97951 16.1315 7.9855 17.1261C7.9915 18.1206 8.39232 19.072 9.09981 19.771L11.7674 22.4067L8.25323 25.9634C7.47655 26.7495 7.04395 27.812 7.05061 28.917C7.05727 30.0221 7.50264 31.0792 8.28873 31.8559C9.07483 32.6326 10.1373 33.0652 11.2423 33.0585C12.3474 33.0518 13.4045 32.6065 14.1812 31.8204L17.6953 28.2636L20.3629 30.8992C20.7132 31.2453 21.1283 31.5191 21.5844 31.7048C22.0405 31.8905 22.5287 31.9845 23.0212 31.9816C23.5136 31.9786 24.0006 31.8787 24.4545 31.6875C24.9083 31.4963 25.32 31.2176 25.6661 30.8673L39.1371 17.233C39.3701 16.9971 39.4999 16.6784 39.4979 16.3469C39.4959 16.0154 39.3623 15.6982 39.1264 15.4652L24.3066 0.822877ZM14.6533 12.3717L23.4387 3.47981L30.5522 10.5081L28.4999 12.5853C28.2669 12.8211 28.1372 13.1399 28.1392 13.4714C28.1412 13.8029 28.2748 14.12 28.5106 14.353C28.7464 14.586 29.0652 14.7158 29.3967 14.7138C29.7282 14.7118 30.0453 14.5782 30.2783 14.3424L32.3306 12.2652L33.5162 13.4366L30.2937 16.6982C30.0607 16.934 29.9309 17.2527 29.9329 17.5842C29.9349 17.9158 30.0685 18.2329 30.3044 18.4659C30.5402 18.6989 30.8589 18.8287 31.1904 18.8267C31.5219 18.8247 31.8391 18.6911 32.0721 18.4553L35.2946 15.1937L36.4802 16.3651L27.6948 25.257L14.6533 12.3717ZM10.8462 16.2249L12.8962 14.1501L25.9377 27.0354L23.8877 29.1102C23.6547 29.346 23.3376 29.4796 23.0061 29.4816C22.6746 29.4836 22.3558 29.3538 22.12 29.1208L18.5632 25.6067C18.3274 25.3737 18.0087 25.2439 17.6772 25.2459C17.3456 25.2479 17.0285 25.3815 16.7955 25.6173L12.4028 30.0633C12.0921 30.3777 11.6693 30.5559 11.2272 30.5585C10.7852 30.5612 10.3603 30.3882 10.0458 30.0775C9.73138 29.7668 9.55323 29.344 9.55057 28.902C9.5479 28.4599 9.72094 28.035 10.0316 27.7205L14.4243 23.2745C14.6573 23.0387 14.7871 22.72 14.7851 22.3885C14.7831 22.057 14.6495 21.7398 14.4137 21.5068L10.8569 17.9926C10.6211 17.7596 10.4875 17.4425 10.4855 17.111C10.4835 16.7795 10.6132 16.4607 10.8462 16.2249Z" fill="black"/>
</g>
<defs>
<clipPath id="clip0_0_4714">
<rect width="40" height="40" fill="white"/>
</clipPath>
</defs>
</svg>
