<svg width="31" height="22" viewBox="0 0 31 22" fill="none" xmlns="http://www.w3.org/2000/svg">
<path d="M29.9828 12.5342C29.9065 12.5915 29.8196 12.6331 29.7272 12.6568C29.6348 12.6805 29.5386 12.6857 29.4441 12.6722C29.3497 12.6588 29.2588 12.6268 29.1767 12.5782C29.0946 12.5296 29.0229 12.4653 28.9656 12.3889C28.3585 11.5747 27.5691 10.914 26.6607 10.4598C25.7522 10.0056 24.75 9.77046 23.7344 9.7733C23.5417 9.7733 23.3569 9.69675 23.2206 9.56049C23.0844 9.42424 23.0078 9.23943 23.0078 9.04674C23.0078 8.85404 23.0844 8.66924 23.2206 8.53298C23.3569 8.39672 23.5417 8.32018 23.7344 8.32018C24.3319 8.32096 24.9172 8.15172 25.4221 7.83222C25.927 7.51272 26.3305 7.05616 26.5856 6.51586C26.8407 5.97557 26.9368 5.37385 26.8626 4.78099C26.7884 4.18813 26.5471 3.6286 26.1668 3.16778C25.7865 2.70695 25.283 2.36385 24.715 2.17855C24.1469 1.99325 23.5379 1.9734 22.959 2.12132C22.3802 2.26924 21.8553 2.57882 21.4458 3.0139C21.0363 3.44898 20.7591 3.9916 20.6465 4.57838C20.6084 4.76884 20.4968 4.93664 20.3359 5.04543C20.175 5.15422 19.9777 5.19524 19.7867 5.15963C19.6932 5.14227 19.6041 5.10643 19.5247 5.05419C19.4452 5.00196 19.377 4.93439 19.324 4.85544C19.271 4.77649 19.2342 4.68775 19.216 4.59443C19.1977 4.50111 19.1982 4.40508 19.2176 4.31197C19.4358 3.19069 20.0632 2.19064 20.9779 1.50635C21.8926 0.822063 23.0291 0.502452 24.1664 0.609685C25.3037 0.716918 26.3604 1.24333 27.131 2.08653C27.9017 2.92973 28.3312 4.02943 28.3359 5.17174C28.3383 5.87757 28.1765 6.57428 27.8634 7.20685C27.5502 7.83942 27.0943 8.39053 26.5316 8.81666C27.9629 9.35637 29.2106 10.2931 30.1281 11.517C30.2437 11.6712 30.2934 11.865 30.2661 12.0557C30.2389 12.2465 30.137 12.4186 29.9828 12.5342ZM23.1289 20.8413C23.209 21.0152 23.2184 21.2134 23.1551 21.3941C23.0919 21.5749 22.9609 21.724 22.7898 21.81C22.6914 21.8568 22.584 21.8816 22.475 21.8827C22.3377 21.8855 22.2026 21.848 22.0863 21.7748C21.9701 21.7016 21.8779 21.596 21.8211 21.471C21.2426 20.2873 20.3435 19.2898 19.2259 18.5921C18.1084 17.8944 16.8174 17.5245 15.5 17.5245C14.1826 17.5245 12.8916 17.8944 11.7741 18.5921C10.6565 19.2898 9.75736 20.2873 9.17891 21.471C9.09524 21.6442 8.94626 21.7772 8.76464 21.8408C8.58303 21.9044 8.38362 21.8933 8.21016 21.81C8.0391 21.724 7.90814 21.5749 7.84489 21.3941C7.78164 21.2134 7.79103 21.0152 7.87109 20.8413C8.81236 18.9019 10.4581 17.3947 12.4727 16.6272C11.4637 15.974 10.6932 15.012 10.276 13.8848C9.85881 12.7576 9.81741 11.5257 10.158 10.373C10.4985 9.22034 11.2028 8.20875 12.1656 7.48927C13.1284 6.7698 14.2981 6.38104 15.5 6.38104C16.7019 6.38104 17.8716 6.7698 18.8344 7.48927C19.7972 8.20875 20.5014 9.22034 20.842 10.373C21.1826 11.5257 21.1412 12.7576 20.724 13.8848C20.3068 15.012 19.5363 15.974 18.5273 16.6272C20.5419 17.3947 22.1876 18.9019 23.1289 20.8413ZM15.5 16.0702C16.3143 16.0702 17.1103 15.8287 17.7874 15.3763C18.4645 14.9239 18.9922 14.2809 19.3038 13.5286C19.6154 12.7762 19.6969 11.9484 19.5381 11.1498C19.3792 10.3511 18.9871 9.6175 18.4113 9.0417C17.8355 8.4659 17.1019 8.07377 16.3032 7.91491C15.5046 7.75605 14.6767 7.83758 13.9244 8.1492C13.1721 8.46082 12.5291 8.98853 12.0767 9.6656C11.6243 10.3427 11.3828 11.1387 11.3828 11.953C11.386 13.044 11.8208 14.0893 12.5922 14.8607C13.3637 15.6322 14.409 16.067 15.5 16.0702ZM7.26562 8.32018C6.66815 8.32096 6.08278 8.15172 5.5779 7.83222C5.07302 7.51272 4.66947 7.05616 4.41439 6.51586C4.15932 5.97557 4.06325 5.37385 4.1374 4.78099C4.21156 4.18813 4.45287 3.6286 4.83317 3.16778C5.21346 2.70695 5.71703 2.36385 6.28504 2.17855C6.85306 1.99325 7.46208 1.9734 8.04096 2.12132C8.61984 2.26924 9.14468 2.57882 9.55418 3.0139C9.96367 3.44898 10.2409 3.9916 10.3535 4.57838C10.3916 4.76884 10.5032 4.93664 10.6641 5.04543C10.825 5.15422 11.0223 5.19524 11.2133 5.15963C11.3068 5.14227 11.3959 5.10643 11.4753 5.05419C11.5548 5.00196 11.623 4.93439 11.676 4.85544C11.729 4.77649 11.7658 4.68775 11.784 4.59443C11.8023 4.50111 11.8017 4.40508 11.7824 4.31197C11.5642 3.19069 10.9368 2.19064 10.0221 1.50635C9.1074 0.822063 7.9709 0.502452 6.83362 0.609685C5.69635 0.716918 4.63961 1.24333 3.86896 2.08653C3.0983 2.92973 2.66883 4.02943 2.66406 5.17174C2.66171 5.87757 2.82349 6.57428 3.13662 7.20685C3.44976 7.83942 3.90567 8.39053 4.46836 8.81666C3.03707 9.35637 1.78943 10.2931 0.871875 11.517C0.814627 11.5934 0.772974 11.6802 0.749294 11.7727C0.725614 11.8651 0.720371 11.9613 0.733865 12.0557C0.747358 12.1502 0.779324 12.2411 0.827937 12.3232C0.876549 12.4053 0.940857 12.477 1.01719 12.5342C1.09352 12.5915 1.18038 12.6331 1.27281 12.6568C1.36523 12.6805 1.46142 12.6857 1.55588 12.6722C1.65033 12.6588 1.7412 12.6268 1.8233 12.5782C1.9054 12.5296 1.97713 12.4653 2.03437 12.3889C2.6415 11.5747 3.4309 10.914 4.33934 10.4598C5.24777 10.0056 6.24997 9.77046 7.26562 9.7733C7.45832 9.7733 7.64312 9.69675 7.77938 9.56049C7.91564 9.42424 7.99219 9.23943 7.99219 9.04674C7.99219 8.85404 7.91564 8.66924 7.77938 8.53298C7.64312 8.39672 7.45832 8.32018 7.26562 8.32018Z" fill="white"/>
</svg>
