<svg width="25" height="25" viewBox="0 0 25 25" fill="none" xmlns="http://www.w3.org/2000/svg">
<path d="M17.7077 14.5834V20.8334M14.5827 17.7084H20.8327M6.24935 10.4167H8.33268C8.88522 10.4167 9.41512 10.1973 9.80582 9.80655C10.1965 9.41585 10.416 8.88595 10.416 8.33341V6.25008C10.416 5.69755 10.1965 5.16764 9.80582 4.77694C9.41512 4.38624 8.88522 4.16675 8.33268 4.16675H6.24935C5.69681 4.16675 5.16691 4.38624 4.77621 4.77694C4.38551 5.16764 4.16602 5.69755 4.16602 6.25008V8.33341C4.16602 8.88595 4.38551 9.41585 4.77621 9.80655C5.16691 10.1973 5.69681 10.4167 6.24935 10.4167ZM16.666 10.4167H18.7493C19.3019 10.4167 19.8318 10.1973 20.2225 9.80655C20.6132 9.41585 20.8327 8.88595 20.8327 8.33341V6.25008C20.8327 5.69755 20.6132 5.16764 20.2225 4.77694C19.8318 4.38624 19.3019 4.16675 18.7493 4.16675H16.666C16.1135 4.16675 15.5836 4.38624 15.1929 4.77694C14.8022 5.16764 14.5827 5.69755 14.5827 6.25008V8.33341C14.5827 8.88595 14.8022 9.41585 15.1929 9.80655C15.5836 10.1973 16.1135 10.4167 16.666 10.4167ZM6.24935 20.8334H8.33268C8.88522 20.8334 9.41512 20.6139 9.80582 20.2232C10.1965 19.8325 10.416 19.3026 10.416 18.7501V16.6667C10.416 16.1142 10.1965 15.5843 9.80582 15.1936C9.41512 14.8029 8.88522 14.5834 8.33268 14.5834H6.24935C5.69681 14.5834 5.16691 14.8029 4.77621 15.1936C4.38551 15.5843 4.16602 16.1142 4.16602 16.6667V18.7501C4.16602 19.3026 4.38551 19.8325 4.77621 20.2232C5.16691 20.6139 5.69681 20.8334 6.24935 20.8334Z" stroke="#535353" stroke-width="2" stroke-linecap="round" stroke-linejoin="round"/>
</svg>
