<svg width="17" height="17" viewBox="0 0 17 17" fill="none" xmlns="http://www.w3.org/2000/svg">
<path d="M11.9439 3.17847L13.1389 1.9828C13.388 1.7337 13.7258 1.59375 14.0781 1.59375C14.4304 1.59375 14.7683 1.7337 15.0174 1.9828C15.2665 2.2319 15.4064 2.56976 15.4064 2.92205C15.4064 3.27434 15.2665 3.6122 15.0174 3.8613L7.49558 11.3831C7.1211 11.7573 6.6593 12.0324 6.15188 12.1835L4.25 12.7502L4.81667 10.8483C4.96774 10.3409 5.24282 9.87907 5.61708 9.50459L11.9439 3.17847ZM11.9439 3.17847L13.8125 5.04705M12.75 9.91684V13.2814C12.75 13.7041 12.5821 14.1095 12.2832 14.4084C11.9843 14.7073 11.5789 14.8752 11.1562 14.8752H3.71875C3.29606 14.8752 2.89068 14.7073 2.5918 14.4084C2.29291 14.1095 2.125 13.7041 2.125 13.2814V5.84392C2.125 5.42124 2.29291 5.01586 2.5918 4.71697C2.89068 4.41809 3.29606 4.25018 3.71875 4.25018H7.08333" stroke="#7A7777" stroke-width="1.5" stroke-linecap="round" stroke-linejoin="round"/>
</svg>
