<svg width="21" height="21" viewBox="0 0 21 21" fill="none" xmlns="http://www.w3.org/2000/svg">
<path d="M18.1186 5.09776L15.0255 2.00639C14.8624 1.84304 14.6414 1.75081 14.4106 1.74982C14.1798 1.74884 13.9579 1.83918 13.7935 2.00114L6.209 9.46751C6.09078 9.58453 6.00798 9.73253 5.97012 9.89451L5.07412 13.7769L3.5 15.75H5.9745L6.97375 14.7621L10.1132 14.0376C10.2707 14.0009 10.4151 13.9213 10.5306 13.8084L18.1143 6.34026C18.1965 6.25921 18.262 6.16266 18.3068 6.05619C18.3516 5.94972 18.3749 5.83543 18.3753 5.71992C18.3757 5.60441 18.3532 5.48996 18.3092 5.38318C18.2651 5.2764 18.2004 5.17939 18.1186 5.09776ZM9.92075 11.9516L8.06488 10.0966L14.4025 3.85701L16.2575 5.71201L9.92075 11.9516ZM3.5 17.5H17.5V19.25H3.5V17.5Z" fill="#7A7777"/>
</svg>
