<svg width="275" height="83" viewBox="0 0 275 83" fill="none" xmlns="http://www.w3.org/2000/svg">
<path d="M0 40.3366C0 18.0593 18.0593 0 40.3366 0H222.415C234.691 0 246.477 5.4084 254.576 14.6335C263.812 25.1537 267.324 39.7223 263.737 53.2545C262.893 56.4364 263.328 59.822 264.948 62.6875L274.633 79.8144C275.509 81.3629 274.079 83.1983 272.363 82.7275L253.435 77.5335C251 76.8652 248.436 76.8226 245.979 77.4096L238.053 79.3039C234.246 80.2137 230.345 80.6733 226.431 80.6733H40.3366C18.0593 80.6733 0 62.6139 0 40.3366Z" fill="white"/>
</svg>
