<svg width="21" height="21" viewBox="0 0 21 21" fill="none" xmlns="http://www.w3.org/2000/svg">
<path d="M13.1249 3.07297C14.2372 3.46765 15.2469 4.10665 16.0797 4.94296C16.9126 5.77928 17.5473 6.79164 17.9374 7.9056M9.62488 2.6731C8.29771 2.82147 7.03005 3.30487 5.94108 4.07787C4.8521 4.85086 3.97756 5.88807 3.39966 7.09199C2.82176 8.29591 2.55948 9.62701 2.63747 10.9602C2.71546 12.2933 3.13116 13.5848 3.8455 14.7131L2.62488 18.375L6.28675 17.1543C7.41508 17.8687 8.70651 18.2844 10.0397 18.3624C11.3728 18.4404 12.7039 18.1781 13.9079 17.6002C15.1118 17.0223 16.149 16.1477 16.922 15.0588C17.695 13.9698 18.1784 12.7021 18.3268 11.375" stroke="#FEAE37" stroke-width="2" stroke-linecap="round" stroke-linejoin="round"/>
<path d="M10.5 14.875C9.33968 14.875 8.22688 14.4141 7.40641 13.5936C6.58594 12.7731 6.125 11.6603 6.125 10.5M7.875 7.00001C8.7175 6.36813 9.75966 6.06136 10.8101 6.13601C11.8606 6.21067 12.8489 6.66174 13.5936 7.40641C14.3383 8.15109 14.7893 9.13939 14.864 10.1899C14.9386 11.2403 14.6319 12.2825 14 13.125" stroke="#FEAE37" stroke-width="2" stroke-linecap="round" stroke-linejoin="round"/>
<path d="M10.5 11.375C10.9832 11.375 11.375 10.9832 11.375 10.5C11.375 10.0168 10.9832 9.625 10.5 9.625C10.0168 9.625 9.625 10.0168 9.625 10.5C9.625 10.9832 10.0168 11.375 10.5 11.375Z" stroke="#FEAE37" stroke-width="2" stroke-linecap="round" stroke-linejoin="round"/>
</svg>
