<svg width="21" height="21" viewBox="0 0 21 21" fill="none" xmlns="http://www.w3.org/2000/svg">
<path d="M1.97063 7C1.69562 7 1.46525 6.904 1.27954 6.712C1.09318 6.52067 1 6.28333 1 6C1 5.71667 1.09318 5.479 1.27954 5.287C1.46525 5.09567 1.69562 5 1.97063 5H4.8825C5.15751 5 5.3882 5.09567 5.57456 5.287C5.76027 5.479 5.85313 5.71667 5.85313 6C5.85313 6.28333 5.76027 6.52067 5.57456 6.712C5.3882 6.904 5.15751 7 4.8825 7H1.97063ZM1.97063 12C1.69562 12 1.46525 11.904 1.27954 11.712C1.09318 11.5207 1 11.2833 1 11C1 10.7167 1.09318 10.479 1.27954 10.287C1.46525 10.0957 1.69562 10 1.97063 10H4.8825C5.15751 10 5.3882 10.0957 5.57456 10.287C5.76027 10.479 5.85313 10.7167 5.85313 11C5.85313 11.2833 5.76027 11.5207 5.57456 11.712C5.3882 11.904 5.15751 12 4.8825 12H1.97063ZM18.3742 16.3L15.3167 13.15C14.9285 13.4333 14.504 13.6457 14.0433 13.787C13.5819 13.929 13.1166 14 12.6475 14C11.3048 14 10.1604 13.5123 9.21441 12.537C8.26772 11.5623 7.79438 10.3833 7.79438 9C7.79438 7.61667 8.26772 6.43733 9.21441 5.462C10.1604 4.48733 11.3048 4 12.6475 4C13.9902 4 15.1349 4.48733 16.0816 5.462C17.0276 6.43733 17.5006 7.61667 17.5006 9C17.5006 9.48333 17.432 9.96267 17.2949 10.438C17.157 10.9127 16.9506 11.35 16.6756 11.75L19.7331 14.9C19.911 15.0833 20 15.3167 20 15.6C20 15.8833 19.911 16.1167 19.7331 16.3C19.5551 16.4833 19.3286 16.575 19.0536 16.575C18.7786 16.575 18.5521 16.4833 18.3742 16.3ZM12.6475 12C13.4564 12 14.1439 11.7083 14.7101 11.125C15.2763 10.5417 15.5594 9.83333 15.5594 9C15.5594 8.16667 15.2763 7.45833 14.7101 6.875C14.1439 6.29167 13.4564 6 12.6475 6C11.8387 6 11.1511 6.29167 10.5849 6.875C10.0187 7.45833 9.73563 8.16667 9.73563 9C9.73563 9.83333 10.0187 10.5417 10.5849 11.125C11.1511 11.7083 11.8387 12 12.6475 12ZM1.97063 17C1.69562 17 1.46525 16.904 1.27954 16.712C1.09318 16.5207 1 16.2833 1 16C1 15.7167 1.09318 15.4793 1.27954 15.288C1.46525 15.096 1.69562 15 1.97063 15H9.73563C10.0106 15 10.2413 15.096 10.4277 15.288C10.6134 15.4793 10.7063 15.7167 10.7063 16C10.7063 16.2833 10.6134 16.5207 10.4277 16.712C10.2413 16.904 10.0106 17 9.73563 17H1.97063Z" fill="#FE6637"/>
</svg>
