<svg width="21" height="21" viewBox="0 0 21 21" fill="none" xmlns="http://www.w3.org/2000/svg">
<path d="M8.3125 11.8125C7.46667 11.8125 6.74479 11.5135 6.14687 10.9156C5.54896 10.3177 5.25 9.59583 5.25 8.75C5.25 7.90417 5.54896 7.18229 6.14687 6.58437C6.74479 5.98646 7.46667 5.6875 8.3125 5.6875C9.15833 5.6875 9.88021 5.98646 10.4781 6.58437C11.076 7.18229 11.375 7.90417 11.375 8.75C11.375 9.59583 11.076 10.3177 10.4781 10.9156C9.88021 11.5135 9.15833 11.8125 8.3125 11.8125ZM8.3125 10.0625C8.67708 10.0625 8.98683 9.93475 9.24175 9.67925C9.49725 9.42433 9.625 9.11458 9.625 8.75C9.625 8.38542 9.49725 8.07567 9.24175 7.82075C8.98683 7.56525 8.67708 7.4375 8.3125 7.4375C7.94792 7.4375 7.63817 7.56525 7.38325 7.82075C7.12775 8.07567 7 8.38542 7 8.75C7 9.11458 7.12775 9.42433 7.38325 9.67925C7.63817 9.93475 7.94792 10.0625 8.3125 10.0625ZM14.4375 12.6875C13.825 12.6875 13.3073 12.476 12.8844 12.0531C12.4615 11.6302 12.25 11.1125 12.25 10.5C12.25 9.8875 12.4615 9.36979 12.8844 8.94688C13.3073 8.52396 13.825 8.3125 14.4375 8.3125C15.05 8.3125 15.5677 8.52396 15.9906 8.94688C16.4135 9.36979 16.625 9.8875 16.625 10.5C16.625 11.1125 16.4135 11.6302 15.9906 12.0531C15.5677 12.476 15.05 12.6875 14.4375 12.6875ZM9.0125 17.325C9.66875 15.9979 10.5437 15.1118 11.6375 14.6667C12.7312 14.2222 13.6646 14 14.4375 14C14.7729 14 15.101 14.0292 15.4219 14.0875C15.7427 14.1458 16.0563 14.2188 16.3625 14.3063C16.7125 13.7521 16.9896 13.1542 17.1937 12.5125C17.3979 11.8708 17.5 11.2 17.5 10.5C17.5 8.54583 16.8219 6.89062 15.4656 5.53437C14.1094 4.17812 12.4542 3.5 10.5 3.5C8.54583 3.5 6.89062 4.17812 5.53437 5.53437C4.17812 6.89062 3.5 8.54583 3.5 10.5C3.5 11.1562 3.58371 11.7833 3.75113 12.3812C3.91913 12.9792 4.17083 13.5333 4.50625 14.0437C5.075 13.7521 5.67671 13.526 6.31137 13.3656C6.94546 13.2052 7.6125 13.125 8.3125 13.125C8.77917 13.125 9.22775 13.165 9.65825 13.2449C10.0882 13.3254 10.5146 13.4312 10.9375 13.5625C10.6021 13.7375 10.285 13.9417 9.98637 14.175C9.68713 14.4083 9.40625 14.6562 9.14375 14.9187C8.96875 14.8896 8.81942 14.875 8.69575 14.875H8.3125C7.83125 14.875 7.36458 14.926 6.9125 15.0281C6.46042 15.1302 6.02292 15.2833 5.6 15.4875C6.06667 15.9542 6.58817 16.3444 7.1645 16.6582C7.74025 16.9715 8.35625 17.1937 9.0125 17.325ZM10.5 19.25C9.28958 19.25 8.15208 19.0202 7.0875 18.5605C6.02292 18.1014 5.09688 17.4781 4.30938 16.6906C3.52188 15.9031 2.89858 14.9771 2.4395 13.9125C1.97983 12.8479 1.75 11.7104 1.75 10.5C1.75 9.28958 1.97983 8.15208 2.4395 7.0875C2.89858 6.02292 3.52188 5.09688 4.30938 4.30938C5.09688 3.52188 6.02292 2.89829 7.0875 2.43862C8.15208 1.97954 9.28958 1.75 10.5 1.75C11.7104 1.75 12.8479 1.97954 13.9125 2.43862C14.9771 2.89829 15.9031 3.52188 16.6906 4.30938C17.4781 5.09688 18.1014 6.02292 18.5605 7.0875C19.0202 8.15208 19.25 9.28958 19.25 10.5C19.25 11.7104 19.0202 12.8479 18.5605 13.9125C18.1014 14.9771 17.4781 15.9031 16.6906 16.6906C15.9031 17.4781 14.9771 18.1014 13.9125 18.5605C12.8479 19.0202 11.7104 19.25 10.5 19.25Z" fill="#2A5885"/>
</svg>
