<svg width="25" height="25" viewBox="0 0 25 25" fill="none" xmlns="http://www.w3.org/2000/svg">
<path d="M21.8743 17.7083H3.12435V5.20833H21.8743M21.8743 3.125H3.12435C1.97852 3.125 1.04102 4.0625 1.04102 5.20833V17.7083C1.04102 18.2609 1.26051 18.7908 1.65121 19.1815C2.04191 19.5722 2.57181 19.7917 3.12435 19.7917H8.33268V21.875H16.666V19.7917H21.8743C23.0306 19.7917 23.9577 18.8646 23.9577 17.7083V5.20833C23.9577 4.6558 23.7382 4.12589 23.3475 3.73519C22.9568 3.34449 22.4269 3.125 21.8743 3.125ZM15.6243 6.77083L14.9785 8.19792L13.541 8.85417L14.9785 9.51042L15.6243 10.9375L16.2806 9.51042L17.7077 8.85417L16.2806 8.19792L15.6243 6.77083ZM10.9368 8.85417L9.80143 11.3646L7.29102 12.5L9.80143 13.6354L10.9368 16.1458L12.0827 13.6354L14.5827 12.5L12.0827 11.3646L10.9368 8.85417Z" fill="#535353"/>
</svg>
