<svg width="19" height="19" viewBox="0 0 19 19" fill="none" xmlns="http://www.w3.org/2000/svg">
<path d="M13.8542 9.49999C15.0089 9.49999 16.1164 9.95873 16.933 10.7753C17.7496 11.5919 18.2083 12.6994 18.2083 13.8542C18.2083 15.009 17.7496 16.1165 16.933 16.933C16.1164 17.7496 15.0089 18.2083 13.8542 18.2083C12.6994 18.2083 11.5919 17.7496 10.7753 16.933C9.95873 16.1165 9.49999 15.009 9.49999 13.8542C9.49999 12.6994 9.95873 11.5919 10.7753 10.7753C11.5919 9.95873 12.6994 9.49999 13.8542 9.49999ZM9.5174 11.0833C9.28012 11.4534 9.09147 11.8525 8.95611 12.2708H3.36694C3.20947 12.2708 3.05845 12.3334 2.9471 12.4447C2.83575 12.5561 2.77319 12.7071 2.77319 12.8646V13.5826C2.77319 14.1019 2.99961 14.5959 3.39386 14.934C4.38978 15.7898 5.88999 16.2292 7.91665 16.2292C8.39086 16.2292 8.83578 16.2054 9.25299 16.1579C9.45011 16.5537 9.69869 16.9203 9.98844 17.2504C9.35353 17.3612 8.6624 17.4167 7.91665 17.4167C5.62874 17.4167 3.85699 16.8973 2.61961 15.8333C2.29529 15.5546 2.035 15.2092 1.85656 14.8206C1.67811 14.432 1.58571 14.0094 1.58569 13.5818V12.8638C1.5859 12.3915 1.77366 11.9386 2.10769 11.6048C2.44172 11.2709 2.89466 11.0833 3.36694 11.0833H9.5174ZM11.9478 11.8481L11.894 11.894L11.8481 11.9494C11.8024 12.0155 11.778 12.0939 11.778 12.1742C11.778 12.2546 11.8024 12.333 11.8481 12.3991L11.894 12.4545L13.2952 13.8549L11.8956 15.2538L11.8497 15.3084C11.8039 15.3746 11.7793 15.4532 11.7793 15.5337C11.7793 15.6142 11.8039 15.6927 11.8497 15.7589L11.8956 15.8135L11.951 15.8594C12.0171 15.9051 12.0955 15.9295 12.1758 15.9295C12.2561 15.9295 12.3345 15.9051 12.4007 15.8594L12.4561 15.8135L13.8542 14.4147L15.2554 15.8159L15.31 15.861C15.3761 15.9066 15.4545 15.9311 15.5349 15.9311C15.6152 15.9311 15.6936 15.9066 15.7597 15.861L15.8151 15.8151L15.8602 15.7597C15.9059 15.6936 15.9303 15.6152 15.9303 15.5349C15.9303 15.4545 15.9059 15.3761 15.8602 15.31L15.8143 15.2554L14.4139 13.8542L15.8167 12.4545L15.8626 12.3991C15.9082 12.333 15.9327 12.2546 15.9327 12.1742C15.9327 12.0939 15.9082 12.0155 15.8626 11.9494L15.8167 11.894L15.7613 11.8489C15.6952 11.8032 15.6168 11.7788 15.5364 11.7788C15.4561 11.7788 15.3777 11.8032 15.3116 11.8489L15.257 11.894L13.8542 13.2952L12.4529 11.894L12.3983 11.8489C12.3419 11.8098 12.2764 11.7861 12.2081 11.78C12.1399 11.7739 12.0712 11.7856 12.0088 11.814L11.9486 11.8481H11.9478ZM7.91665 1.58728C8.43647 1.58728 8.95119 1.68967 9.43144 1.88859C9.91169 2.08752 10.3481 2.37908 10.7156 2.74665C11.0832 3.11421 11.3748 3.55058 11.5737 4.03082C11.7726 4.51107 11.875 5.0258 11.875 5.54561C11.875 6.06543 11.7726 6.58015 11.5737 7.0604C11.3748 7.54065 11.0832 7.97701 10.7156 8.34458C10.3481 8.71214 9.91169 9.00371 9.43144 9.20264C8.95119 9.40156 8.43647 9.50395 7.91665 9.50395C6.86684 9.50395 5.86002 9.08691 5.11769 8.34458C4.37536 7.60225 3.95832 6.59543 3.95832 5.54561C3.95832 4.4958 4.37536 3.48898 5.11769 2.74665C5.86002 2.00432 6.86684 1.58728 7.91665 1.58728ZM7.91665 2.77478C7.55278 2.77478 7.19247 2.84645 6.8563 2.9857C6.52013 3.12494 6.21467 3.32904 5.95738 3.58634C5.70008 3.84363 5.49598 4.14909 5.35674 4.48526C5.21749 4.82143 5.14582 5.18174 5.14582 5.54561C5.14582 5.90948 5.21749 6.26979 5.35674 6.60597C5.49598 6.94214 5.70008 7.24759 5.95738 7.50489C6.21467 7.76218 6.52013 7.96628 6.8563 8.10553C7.19247 8.24478 7.55278 8.31645 7.91665 8.31645C8.65152 8.31645 9.35629 8.02452 9.87593 7.50489C10.3956 6.98526 10.6875 6.28048 10.6875 5.54561C10.6875 4.81074 10.3956 4.10597 9.87593 3.58634C9.35629 3.06671 8.65152 2.77478 7.91665 2.77478Z" fill="white"/>
</svg>
