<svg width="23" height="23" viewBox="0 0 23 23" fill="none" xmlns="http://www.w3.org/2000/svg">
<path d="M18.2084 5.75C17.4098 5.75 16.731 5.47049 16.172 4.91146C15.6129 4.35243 15.3334 3.67361 15.3334 2.875C15.3334 2.07639 15.6129 1.39757 16.172 0.838542C16.731 0.279514 17.4098 0 18.2084 0C19.007 0 19.6858 0.279514 20.2449 0.838542C20.8039 1.39757 21.0834 2.07639 21.0834 2.875C21.0834 3.67361 20.8039 4.35243 20.2449 4.91146C19.6858 5.47049 19.007 5.75 18.2084 5.75ZM5.75008 17.25L3.54591 19.4542C3.24244 19.7576 2.89489 19.8254 2.50325 19.6573C2.11225 19.4899 1.91675 19.1906 1.91675 18.7594V3.83333C1.91675 3.30625 2.10458 2.85487 2.48025 2.47921C2.85528 2.10418 3.30633 1.91667 3.83341 1.91667H13.5126C13.4487 2.23611 13.4167 2.55556 13.4167 2.875C13.4167 3.19444 13.4487 3.51389 13.5126 3.83333C13.7362 4.93542 14.2872 5.84967 15.1657 6.57608C16.0442 7.30314 17.0584 7.66667 18.2084 7.66667C18.7195 7.66667 19.2227 7.58681 19.7178 7.42708C20.2129 7.26736 20.6681 7.02778 21.0834 6.70833V15.3333C21.0834 15.8604 20.8959 16.3118 20.5209 16.6875C20.1452 17.0625 19.6938 17.25 19.1667 17.25H5.75008Z" fill="#6BC432"/>
</svg>
