<svg width="19" height="19" viewBox="0 0 19 19" fill="none" xmlns="http://www.w3.org/2000/svg">
<path fill-rule="evenodd" clip-rule="evenodd" d="M6.49325 4.37834L5.59431 3.53996C6.65048 2.84773 7.87164 2.44864 9.13276 2.38356C10.3939 2.31847 11.6496 2.58972 12.7715 3.16954C13.8933 3.74936 14.8408 4.6169 15.5171 5.68335C16.1934 6.74979 16.5741 7.97682 16.6203 9.23877L18.0381 7.83752L18.9287 8.74002L16.4469 11.1981L15.5444 11.1863L13.0625 8.68065L13.965 7.77815L15.4328 9.26252C15.392 8.23735 15.0863 7.24022 14.5455 6.36837C14.0046 5.49651 13.2471 4.77968 12.3468 4.28775C11.4464 3.79583 10.4339 3.54561 9.40806 3.56148C8.3822 3.57736 7.37796 3.85879 6.49325 4.37834ZM11.8964 14.934L12.8274 15.8009C11.7652 16.3618 10.5784 16.6451 9.37743 16.6244C8.17641 16.6037 7.00012 16.2798 5.95789 15.6826C4.91566 15.0854 4.04133 14.2344 3.41616 13.2087C2.791 12.183 2.4353 11.0159 2.38213 9.8159L0.92625 11.2813L0 10.3669L2.48187 7.90877L3.38437 7.92065L5.86625 10.4381L4.96375 11.3406L3.57794 9.9394C3.648 10.8877 3.9448 11.8053 4.44336 12.615C4.94192 13.4247 5.62765 14.1028 6.44288 14.5923C7.2581 15.0818 8.17896 15.3683 9.12798 15.4278C10.077 15.4872 11.0264 15.3179 11.8964 14.934Z" fill="white"/>
<path d="M1.3335 3.50194L2.14337 2.63269L16.2924 15.827L15.4826 16.6963L1.3335 3.50194Z" fill="white"/>
</svg>
