<svg width="19" height="19" viewBox="0 0 19 19" fill="none" xmlns="http://www.w3.org/2000/svg">
<path d="M8.01562 3.85938V4.15625H10.9844V3.85938C10.9844 3.46569 10.828 3.08814 10.5496 2.80976C10.2712 2.53139 9.89368 2.375 9.5 2.375C9.10632 2.375 8.72876 2.53139 8.45039 2.80976C8.17201 3.08814 8.01562 3.46569 8.01562 3.85938ZM6.82812 4.15625V3.85938C6.82812 3.15075 7.10963 2.47115 7.6107 1.97007C8.11177 1.469 8.79137 1.1875 9.5 1.1875C10.2086 1.1875 10.8882 1.469 11.3893 1.97007C11.8904 2.47115 12.1719 3.15075 12.1719 3.85938V4.15625H16.625C16.7825 4.15625 16.9335 4.21881 17.0448 4.33016C17.1562 4.44151 17.2188 4.59253 17.2188 4.75C17.2188 4.90747 17.1562 5.05849 17.0448 5.16984C16.9335 5.28119 16.7825 5.34375 16.625 5.34375H15.7296L14.6062 15.181C14.5234 15.9055 14.1768 16.5741 13.6326 17.0595C13.0883 17.5448 12.3845 17.8128 11.6553 17.8125H7.34469C6.61548 17.8128 5.91165 17.5448 5.36741 17.0595C4.82317 16.5741 4.47659 15.9055 4.39375 15.181L3.27037 5.34375H2.375C2.21753 5.34375 2.06651 5.28119 1.95516 5.16984C1.84381 5.05849 1.78125 4.90747 1.78125 4.75C1.78125 4.59253 1.84381 4.44151 1.95516 4.33016C2.06651 4.21881 2.21753 4.15625 2.375 4.15625H6.82812ZM5.57412 15.0456C5.6237 15.4802 5.83143 15.8813 6.15773 16.1726C6.48404 16.4639 6.90611 16.6249 7.3435 16.625H11.6559C12.0933 16.6249 12.5154 16.4639 12.8417 16.1726C13.168 15.8813 13.3757 15.4802 13.4253 15.0456L14.535 5.34375H4.46559L5.57412 15.0456ZM7.71875 7.42188C7.87622 7.42188 8.02725 7.48443 8.13859 7.59578C8.24994 7.70713 8.3125 7.85815 8.3125 8.01562V13.9531C8.3125 14.1106 8.24994 14.2616 8.13859 14.373C8.02725 14.4843 7.87622 14.5469 7.71875 14.5469C7.56128 14.5469 7.41025 14.4843 7.29891 14.373C7.18756 14.2616 7.125 14.1106 7.125 13.9531V8.01562C7.125 7.85815 7.18756 7.70713 7.29891 7.59578C7.41025 7.48443 7.56128 7.42188 7.71875 7.42188ZM11.875 8.01562C11.875 7.85815 11.8124 7.70713 11.7011 7.59578C11.5897 7.48443 11.4387 7.42188 11.2812 7.42188C11.1238 7.42188 10.9728 7.48443 10.8614 7.59578C10.7501 7.70713 10.6875 7.85815 10.6875 8.01562V13.9531C10.6875 14.1106 10.7501 14.2616 10.8614 14.373C10.9728 14.4843 11.1238 14.5469 11.2812 14.5469C11.4387 14.5469 11.5897 14.4843 11.7011 14.373C11.8124 14.2616 11.875 14.1106 11.875 13.9531V8.01562Z" fill="white"/>
</svg>
