<svg width="23" height="23" viewBox="0 0 23 23" fill="none" xmlns="http://www.w3.org/2000/svg">
<path d="M10.1583 12.8417C10.2967 13.0262 10.3639 13.2545 10.3475 13.4846C10.3312 13.7147 10.2324 13.9312 10.0692 14.0943C9.90612 14.2574 9.68963 14.3562 9.45953 14.3726C9.22942 14.3889 9.00114 14.3217 8.81659 14.1833C8.35821 13.7531 7.99288 13.2336 7.74313 12.6567C7.49339 12.0798 7.36454 11.4578 7.36454 10.8292C7.36454 10.2005 7.49339 9.57857 7.74313 9.00168C7.99288 8.42478 8.35821 7.9052 8.81659 7.475L12.1708 4.025C13.0826 3.14095 14.3028 2.64656 15.5728 2.64656C16.8429 2.64656 18.0631 3.14095 18.9749 4.025C19.859 4.93686 20.3534 6.15703 20.3534 7.42709C20.3534 8.69714 19.859 9.91732 18.9749 10.8292L17.5374 12.2667C17.5579 11.4825 17.4278 10.7018 17.1541 9.96667L17.6333 9.4875C18.1451 8.92331 18.4286 8.18883 18.4286 7.42709C18.4286 6.66534 18.1451 5.93087 17.6333 5.36667C17.0691 4.85487 16.3346 4.57137 15.5728 4.57137C14.8111 4.57137 14.0766 4.85487 13.5124 5.36667L10.1583 8.81667C9.88571 9.07624 9.66873 9.38846 9.52047 9.7344C9.37221 10.0803 9.29576 10.4528 9.29576 10.8292C9.29576 11.2055 9.37221 11.578 9.52047 11.9239C9.66873 12.2699 9.88571 12.5821 10.1583 12.8417ZM15.5249 13.1292C15.691 12.3556 15.6548 11.5524 15.4198 10.7969C15.1848 10.0415 14.7589 9.35944 14.1833 8.81667C13.9987 8.67826 13.7704 8.61106 13.5403 8.62741C13.3102 8.64377 13.0937 8.74257 12.9306 8.90569C12.7675 9.06881 12.6687 9.2853 12.6523 9.5154C12.636 9.74551 12.7032 9.97379 12.8416 10.1583C13.1141 10.4179 13.3311 10.7301 13.4794 11.0761C13.6276 11.422 13.7041 11.7945 13.7041 12.1708C13.7041 12.5472 13.6276 12.9197 13.4794 13.2656C13.3311 13.6115 13.1141 13.9238 12.8416 14.1833L9.48743 17.6333C8.92323 18.1451 8.18875 18.4286 7.42701 18.4286C6.66527 18.4286 5.93079 18.1451 5.36659 17.6333C4.8548 17.0691 4.5713 16.3347 4.5713 15.5729C4.5713 14.8112 4.8548 14.0767 5.36659 13.5125L5.84576 13.1292C5.57941 12.359 5.44968 11.5482 5.46243 10.7333L4.02493 12.1708C3.14087 13.0827 2.64648 14.3029 2.64648 15.5729C2.64648 16.843 3.14087 18.0631 4.02493 18.975C4.93678 19.8591 6.15696 20.3534 7.42701 20.3534C8.69706 20.3534 9.91724 19.8591 10.8291 18.975L12.5541 17.25C12.7006 16.3815 13.0447 15.5582 13.5597 14.8437C14.0748 14.1292 14.7472 13.5426 15.5249 13.1292ZM20.2208 14.8542L18.2083 16.8667L16.1958 14.8542L14.8541 16.1958L16.8666 18.2083L14.8541 20.2208L16.1958 21.5625L18.2083 19.55L20.2208 21.5625L21.5624 20.2208L19.5499 18.2083L21.5624 16.1958L20.2208 14.8542Z" fill="#0077FF"/>
</svg>
