<svg width="23" height="23" viewBox="0 0 23 23" fill="none" xmlns="http://www.w3.org/2000/svg">
<path d="M22.0417 16.2917V18.2083H14.3751V16.2917H22.0417ZM11.5001 2.875C16.7709 2.875 21.0834 6.30583 21.0834 10.5417C21.0834 11.0975 21.0067 11.6342 20.8726 12.1517C19.9958 11.6948 19.0161 11.4715 18.028 11.5033C17.0398 11.5351 16.0765 11.821 15.231 12.3333C14.3854 12.8457 13.6861 13.5672 13.2005 14.4284C12.7149 15.2896 12.4593 16.2613 12.4584 17.25L12.5351 18.1604L11.5001 18.2083C10.3117 18.2083 9.17133 18.0358 8.11716 17.7292C5.31883 20.125 1.91675 20.125 1.91675 20.125C4.14966 17.8921 4.50425 16.3875 4.55216 15.8125C2.923 14.4421 1.91675 12.5925 1.91675 10.5417C1.91675 6.30583 6.22925 2.875 11.5001 2.875Z" fill="white"/>
</svg>
