<svg width="19" height="19" viewBox="0 0 19 19" fill="none" xmlns="http://www.w3.org/2000/svg">
<g clip-path="url(#clip0_0_7134)">
<path d="M7.125 0.329998C7.24092 0.47085 7.31193 0.643227 7.32886 0.824856C7.3458 1.00648 7.30788 1.18902 7.22 1.34887C6.53346 2.60937 6.17492 4.02228 6.17738 5.45762C6.17738 10.2326 10.07 14.0991 14.8675 14.0991C15.4933 14.0991 16.1025 14.0337 16.6879 13.9091C16.8674 13.8702 17.0543 13.8851 17.2254 13.9518C17.3965 14.0185 17.5441 14.1342 17.6498 14.2843C17.7614 14.4404 17.8183 14.629 17.8117 14.8208C17.805 15.0126 17.7352 15.1968 17.613 15.3447C16.6816 16.4888 15.5067 17.4106 14.1738 18.043C12.8409 18.6753 11.3838 19.0022 9.9085 18.9999C4.43412 18.9999 0 14.5895 0 9.1555C0 5.06575 2.51038 1.55787 6.08475 0.0711229C6.2628 -0.00412681 6.46046 -0.0195715 6.64804 0.027109C6.83562 0.0737894 7.00299 0.180074 7.125 0.329998ZM5.76887 1.55669C4.39447 2.29392 3.24548 3.38976 2.44403 4.72774C1.64258 6.06572 1.21861 7.59585 1.21719 9.1555C1.21719 13.9292 5.111 17.7957 9.9085 17.7957C11.0573 17.7977 12.1952 17.5719 13.2561 17.1312C14.3171 16.6905 15.2801 16.0437 16.0894 15.2284C15.6892 15.2782 15.2819 15.3032 14.8675 15.3032C9.39313 15.3032 4.96019 10.8928 4.96019 5.45881C4.96019 4.073 5.24756 2.75369 5.76887 1.55669Z" fill="black"/>
<path d="M12.8179 3.73825C12.8349 3.68682 12.8677 3.64207 12.9116 3.61036C12.9555 3.57864 13.0083 3.56157 13.0625 3.56157C13.1167 3.56157 13.1695 3.57864 13.2134 3.61036C13.2573 3.64207 13.2901 3.68682 13.3071 3.73825L13.7667 5.11812C13.9721 5.73325 14.4542 6.21538 15.0694 6.42081L16.4492 6.88038C16.5007 6.8974 16.5454 6.93021 16.5771 6.97412C16.6089 7.01803 16.6259 7.07083 16.6259 7.125C16.6259 7.17917 16.6089 7.23197 16.5771 7.27588C16.5454 7.31979 16.5007 7.3526 16.4492 7.36963L15.0694 7.82919C14.766 7.93026 14.4903 8.10061 14.2642 8.32672C14.0381 8.55283 13.8678 8.8285 13.7667 9.13188L13.3071 10.5118C13.2901 10.5632 13.2573 10.6079 13.2134 10.6396C13.1695 10.6714 13.1167 10.6884 13.0625 10.6884C13.0083 10.6884 12.9555 10.6714 12.9116 10.6396C12.8677 10.6079 12.8349 10.5632 12.8179 10.5118L12.3583 9.13188C12.2572 8.8285 12.0869 8.55283 11.8608 8.32672C11.6347 8.10061 11.359 7.93026 11.0556 7.82919L9.67574 7.36963C9.62431 7.3526 9.57956 7.31979 9.54784 7.27588C9.51613 7.23197 9.49905 7.17917 9.49905 7.125C9.49905 7.07083 9.51613 7.01803 9.54784 6.97412C9.57956 6.93021 9.62431 6.8974 9.67574 6.88038L11.0556 6.42081C11.359 6.31974 11.6347 6.14939 11.8608 5.92328C12.0869 5.69717 12.2572 5.4215 12.3583 5.11812L12.8179 3.73825ZM16.4623 0.117563C16.474 0.08375 16.496 0.0544302 16.5251 0.0336794C16.5543 0.0129286 16.5892 0.00177812 16.625 0.00177812C16.6608 0.00177812 16.6957 0.0129286 16.7248 0.0336794C16.754 0.0544302 16.776 0.08375 16.7877 0.117563L17.0941 1.03669C17.2306 1.44756 17.5524 1.76937 17.9633 1.90594L18.8824 2.21231C18.9162 2.22404 18.9456 2.246 18.9663 2.27516C18.9871 2.30432 18.9982 2.33921 18.9982 2.375C18.9982 2.41079 18.9871 2.44568 18.9663 2.47484C18.9456 2.504 18.9162 2.52596 18.8824 2.53769L17.9633 2.84406C17.7608 2.91142 17.5768 3.02506 17.4259 3.17595C17.275 3.32684 17.1614 3.51083 17.0941 3.71331L16.7877 4.63244C16.776 4.66625 16.754 4.69557 16.7248 4.71632C16.6957 4.73707 16.6608 4.74822 16.625 4.74822C16.5892 4.74822 16.5543 4.73707 16.5251 4.71632C16.496 4.69557 16.474 4.66625 16.4623 4.63244L16.1559 3.71331C16.0886 3.51083 15.9749 3.32684 15.824 3.17595C15.6732 3.02506 15.4892 2.91142 15.2867 2.84406L14.3676 2.53769C14.3337 2.52596 14.3044 2.504 14.2837 2.47484C14.2629 2.44568 14.2518 2.41079 14.2518 2.375C14.2518 2.33921 14.2629 2.30432 14.2837 2.27516C14.3044 2.246 14.3337 2.22404 14.3676 2.21231L15.2867 1.90594C15.6976 1.76937 16.0194 1.44756 16.1559 1.03669L16.4623 0.11875V0.117563Z" fill="black"/>
</g>
<defs>
<clipPath id="clip0_0_7134">
<rect width="19" height="19" fill="white"/>
</clipPath>
</defs>
</svg>
