<svg width="35" height="34" viewBox="0 0 35 34" fill="none" xmlns="http://www.w3.org/2000/svg">
<path d="M1.13867 30.7552V30.7555V32.2666C1.13867 32.6276 1.28207 32.9738 1.53733 33.2291C1.79259 33.4843 2.13879 33.6277 2.49978 33.6277H33.3887C33.7497 33.6277 34.0959 33.4843 34.3511 33.2291C34.6064 32.9738 34.7498 32.6276 34.7498 32.2666V30.7555V30.7552C34.7495 30.5619 34.7081 30.3709 34.6284 30.1949C34.5487 30.0192 34.4326 29.8624 34.2877 29.735C33.2364 28.7977 32.3156 27.7236 31.5499 26.5415C30.7191 24.9131 30.2205 23.1357 30.0831 21.3128V15.8339C30.0906 12.8459 29.0067 9.95796 27.0351 7.71273C25.112 5.52275 22.4734 4.09126 19.5942 3.67074V2.4555C19.5942 1.99579 19.4116 1.55491 19.0865 1.22985C18.7615 0.904787 18.3206 0.722168 17.8609 0.722168C17.4012 0.722168 16.9603 0.904787 16.6352 1.22985C16.3102 1.55491 16.1276 1.99579 16.1276 2.4555V3.69519C13.2744 4.14134 10.6675 5.58103 8.76949 7.7638C6.82383 10.0014 5.75497 12.8683 5.76089 15.8335C5.76089 15.8336 5.76089 15.8337 5.76089 15.8338L5.76089 21.3128C5.62351 23.136 5.12475 24.9137 4.29367 26.5423C3.54154 27.7217 2.63565 28.7956 1.59988 29.7357C1.45542 29.863 1.33961 30.0195 1.26011 30.1949C1.18031 30.3709 1.13892 30.5619 1.13867 30.7552ZM29.2773 27.9556C29.9468 29.0165 30.7238 30.005 31.5958 30.9055H4.30379C5.17573 30.005 5.95278 29.0165 6.62231 27.9556L6.62718 27.9479L6.63148 27.9398C7.72021 25.8986 8.35544 23.6464 8.49378 21.3371L8.49423 21.3296V21.3222V15.8333H8.49437L8.49408 15.8248C8.45115 14.5562 8.66396 13.2918 9.11982 12.1071C9.57569 10.9224 10.2653 9.84157 11.1476 8.92893C12.0299 8.01629 13.0868 7.29052 14.2554 6.79485C15.424 6.29917 16.6804 6.04373 17.9498 6.04373C19.2192 6.04373 20.4756 6.29917 21.6442 6.79485C22.8128 7.29052 23.8697 8.01629 24.752 8.92893C25.6343 9.84157 26.3239 10.9224 26.7797 12.1071C27.2356 13.2918 27.4484 14.5562 27.4055 15.8248L27.4053 15.8248V15.8333V21.3222V21.3296L27.4058 21.3371C27.5441 23.6464 28.1794 25.8986 29.2681 27.9398L29.2724 27.9479L29.2773 27.9556Z" fill="#818C99" stroke="#818C99" stroke-width="0.5"/>
</svg>
