<svg width="19" height="19" viewBox="0 0 19 19" fill="none" xmlns="http://www.w3.org/2000/svg">
<path d="M0.949219 2.8501H16.1492V4.7501H0.949219V2.8501ZM0.949219 8.5501H11.3992V10.4501H0.949219V8.5501ZM0.949219 14.2501H7.59922V16.1501H0.949219V14.2501ZM17.8592 11.3051L18.8092 10.2601C18.9027 10.1556 18.9544 10.0203 18.9544 9.8801C18.9544 9.73989 18.9027 9.6046 18.8092 9.5001L17.0992 7.7901C16.9947 7.69663 16.8594 7.64495 16.7192 7.64495C16.579 7.64495 16.4437 7.69663 16.3392 7.7901L15.3892 8.7401L17.8592 11.3051ZM14.7242 9.4051L9.49922 14.5351V17.1001H11.9692L17.2892 11.8751L14.7242 9.3101V9.4051Z" fill="#FE6637"/>
</svg>
