<svg width="17" height="17" viewBox="0 0 17 17" fill="none" xmlns="http://www.w3.org/2000/svg">
<path fill-rule="evenodd" clip-rule="evenodd" d="M13.353 4.56965C13.4136 4.50915 13.4616 4.43731 13.4944 4.35824C13.5272 4.27916 13.5442 4.1944 13.5442 4.10878C13.5443 4.02317 13.5275 3.93839 13.4947 3.85927C13.462 3.78016 13.4141 3.70826 13.3536 3.64768C13.2931 3.58711 13.2212 3.53904 13.1421 3.50623C13.0631 3.47342 12.9783 3.45651 12.8927 3.45646C12.8071 3.4564 12.7223 3.47321 12.6432 3.50593C12.5641 3.53864 12.4922 3.58662 12.4316 3.64712L8.50005 7.57865L4.56965 3.64712C4.44732 3.52478 4.28139 3.45605 4.10838 3.45605C3.93538 3.45605 3.76945 3.52478 3.64712 3.64712C3.52478 3.76945 3.45605 3.93538 3.45605 4.10838C3.45605 4.28139 3.52478 4.44732 3.64712 4.56965L7.57865 8.50005L3.64712 12.4305C3.58654 12.491 3.53849 12.5629 3.50571 12.6421C3.47293 12.7212 3.45605 12.8061 3.45605 12.8917C3.45605 12.9774 3.47293 13.0622 3.50571 13.1414C3.53849 13.2205 3.58654 13.2924 3.64712 13.353C3.76945 13.4753 3.93538 13.544 4.10838 13.544C4.19405 13.544 4.27888 13.5272 4.35802 13.4944C4.43716 13.4616 4.50908 13.4136 4.56965 13.353L8.50005 9.42145L12.4316 13.353C12.5539 13.4752 12.7198 13.5438 12.8927 13.5436C13.0656 13.5435 13.2314 13.4748 13.3536 13.3524C13.4757 13.2301 13.5443 13.0642 13.5442 12.8913C13.5441 12.7184 13.4753 12.5526 13.353 12.4305L9.42145 8.50005L13.353 4.56965Z" fill="#7A7777"/>
</svg>
