<svg width="26" height="26" viewBox="0 0 26 26" fill="none" xmlns="http://www.w3.org/2000/svg">
<path fill-rule="evenodd" clip-rule="evenodd" d="M1 14.5C1 11.45 2.2116 8.52494 4.36827 6.36827C6.52494 4.2116 9.45001 3 12.5 3C15.55 3 18.4751 4.2116 20.6317 6.36827C22.7884 8.52494 24 11.45 24 14.5C24 17.55 22.7884 20.4751 20.6317 22.6317C18.4751 24.7884 15.55 26 12.5 26C9.45001 26 6.52494 24.7884 4.36827 22.6317C2.2116 20.4751 1 17.55 1 14.5ZM12.5 4.64955C9.8875 4.64955 7.382 5.68737 5.53468 7.53468C3.68737 9.382 2.64955 11.8875 2.64955 14.5C2.64955 17.1125 3.68737 19.618 5.53468 21.4653C7.382 23.3126 9.8875 24.3504 12.5 24.3504C15.1125 24.3504 17.618 23.3126 19.4653 21.4653C21.3126 19.618 22.3504 17.1125 22.3504 14.5C22.3504 11.8875 21.3126 9.382 19.4653 7.53468C17.618 5.68737 15.1125 4.64955 12.5 4.64955ZM16.5874 10.4143C16.7502 10.5771 16.8416 10.7979 16.8416 11.0281C16.8416 11.2583 16.7502 11.4791 16.5874 11.6419L13.7276 14.5L16.5874 17.3581C16.7504 17.5211 16.842 17.7422 16.842 17.9727C16.842 18.2033 16.7504 18.4244 16.5874 18.5874C16.4244 18.7504 16.2033 18.842 15.9727 18.842C15.7422 18.842 15.5211 18.7504 15.3581 18.5874L12.5 15.7276L9.64193 18.5874C9.56121 18.6681 9.46538 18.7322 9.35991 18.7759C9.25445 18.8195 9.14141 18.842 9.02725 18.842C8.9131 18.842 8.80006 18.8195 8.69459 18.7759C8.58913 18.7322 8.4933 18.6681 8.41258 18.5874C8.33186 18.5067 8.26783 18.4109 8.22414 18.3054C8.18045 18.1999 8.15797 18.0869 8.15797 17.9727C8.15797 17.8586 8.18045 17.7456 8.22414 17.6401C8.26783 17.5346 8.33186 17.4388 8.41258 17.3581L11.2724 14.5L8.41258 11.6419C8.24956 11.4789 8.15797 11.2578 8.15797 11.0273C8.15797 10.7967 8.24956 10.5756 8.41258 10.4126C8.5756 10.2496 8.79671 10.158 9.02725 10.158C9.2578 10.158 9.47891 10.2496 9.64193 10.4126L12.5 13.2724L15.3581 10.4126C15.4387 10.3317 15.5345 10.2676 15.64 10.2238C15.7455 10.18 15.8586 10.1575 15.9727 10.1575C16.0869 10.1575 16.2 10.18 16.3055 10.2238C16.411 10.2676 16.5068 10.3335 16.5874 10.4143Z" fill="#970000"/>
</svg>
