<svg width="21" height="21" viewBox="0 0 21 21" fill="none" xmlns="http://www.w3.org/2000/svg">
<path d="M7.5 5.5L4.5 2.5H10.5C12.0976 2.49986 13.6587 2.97788 14.9823 3.87253C16.306 4.76718 17.3315 6.03751 17.927 7.52C18.297 8.441 18.5 9.447 18.5 10.5C18.5 12.6217 17.6571 14.6566 16.1569 16.1569C14.6566 17.6571 12.6217 18.5 10.5 18.5C8.37827 18.5 6.34344 17.6571 4.84315 16.1569C3.34285 14.6566 2.5 12.6217 2.5 10.5C2.5 9.01 2.87 7.028 4.038 5.409M7.5 7.5L13.5 13.5M7.5 13.5L13.5 7.5" stroke="#7A7777" stroke-width="2" stroke-linecap="round" stroke-linejoin="round"/>
</svg>
