<svg width="38" height="30" viewBox="0 0 38 30" fill="none" xmlns="http://www.w3.org/2000/svg">
<path d="M17.2082 13.7083L14.8332 11.3333C14.5276 11.0278 14.1454 10.8678 13.6865 10.8533C13.2287 10.84 12.8332 11 12.4998 11.3333C12.1943 11.6389 12.0415 12.0278 12.0415 12.5C12.0415 12.9722 12.1943 13.3611 12.4998 13.6667L16.0415 17.25C16.3748 17.5833 16.7637 17.75 17.2082 17.75C17.6526 17.75 18.0415 17.5833 18.3748 17.25L26.1248 10.1667C26.1248 9.72222 26.0971 9.29167 26.0415 8.875C25.986 8.45833 25.8054 8.09722 25.4998 7.79167C25.1665 7.45833 24.7709 7.29167 24.3132 7.29167C23.8543 7.29167 23.4582 7.45833 23.1248 7.79167L17.2082 13.7083ZM0.666504 30V26.6667H35.6665C36.1387 26.6667 36.5343 26.8267 36.8532 27.1467C37.1732 27.4656 37.3332 27.8611 37.3332 28.3333C37.3332 28.8056 37.1732 29.2011 36.8532 29.52C36.5343 29.84 36.1387 30 35.6665 30H0.666504ZM5.6665 25C4.74984 25 3.96539 24.6739 3.31317 24.0217C2.65984 23.3683 2.33317 22.5833 2.33317 21.6667V3.33333C2.33317 2.41667 2.65984 1.63167 3.31317 0.978333C3.96539 0.326111 4.74984 0 5.6665 0H32.3332C33.2498 0 34.0348 0.326111 34.6882 0.978333C35.3404 1.63167 35.6665 2.41667 35.6665 3.33333V21.6667C35.6665 22.5833 35.3404 23.3683 34.6882 24.0217C34.0348 24.6739 33.2498 25 32.3332 25H5.6665Z" fill="#FE6637"/>
</svg>
