<svg width="34" height="34" viewBox="0 0 34 34" fill="none" xmlns="http://www.w3.org/2000/svg">
<path d="M30.3335 10.3335H3.66683V7.00016H30.3335V10.3335ZM27.0002 0.333496H7.00016V3.66683H27.0002V0.333496ZM33.6668 17.0002V30.3335C33.6668 31.2176 33.3156 32.0654 32.6905 32.6905C32.0654 33.3156 31.2176 33.6668 30.3335 33.6668H3.66683C2.78359 33.6642 1.93727 33.3122 1.31272 32.6876C0.688171 32.0631 0.336134 31.2167 0.333496 30.3335V17.0002C0.336134 16.1169 0.688171 15.2706 1.31272 14.6461C1.93727 14.0215 2.78359 13.6695 3.66683 13.6668H30.3335C31.2167 13.6695 32.0631 14.0215 32.6876 14.6461C33.3122 15.2706 33.6642 16.1169 33.6668 17.0002ZM20.2118 25.4035L24.0835 22.0935L18.9852 21.6668L17.0002 17.0002L15.0152 21.6668L9.91683 22.0935L13.7885 25.4035L12.6218 30.3335L17.0002 27.7135L21.3785 30.3335L20.2118 25.4035Z" fill="#818C99"/>
</svg>
