<svg width="25" height="25" viewBox="0 0 25 25" fill="none" xmlns="http://www.w3.org/2000/svg">
<path d="M21.7917 16.2708C21.7389 16.1445 21.6649 16.0283 21.5729 15.927L18.4479 12.802C18.2518 12.6059 17.9857 12.4957 17.7083 12.4957C17.4309 12.4957 17.1649 12.6059 16.9688 12.802C16.7726 12.9982 16.6624 13.2642 16.6624 13.5416C16.6624 13.819 16.7726 14.085 16.9688 14.2812L18.3229 15.6249H12.5C12.2237 15.6249 11.9588 15.7347 11.7634 15.93C11.5681 16.1254 11.4583 16.3903 11.4583 16.6666C11.4583 16.9429 11.5681 17.2078 11.7634 17.4032C11.9588 17.5985 12.2237 17.7083 12.5 17.7083H18.3229L16.9688 19.052C16.8711 19.1488 16.7936 19.264 16.7407 19.391C16.6879 19.5179 16.6606 19.6541 16.6606 19.7916C16.6606 19.9291 16.6879 20.0653 16.7407 20.1922C16.7936 20.3191 16.8711 20.4343 16.9688 20.5312C17.0656 20.6288 17.1808 20.7063 17.3077 20.7592C17.4347 20.8121 17.5708 20.8393 17.7083 20.8393C17.8458 20.8393 17.982 20.8121 18.1089 20.7592C18.2359 20.7063 18.3511 20.6288 18.4479 20.5312L21.5729 17.4062C21.6694 17.3084 21.7439 17.1912 21.7917 17.0624C21.8959 16.8088 21.8959 16.5244 21.7917 16.2708ZM14.5833 20.8333H6.25C5.97373 20.8333 5.70878 20.7235 5.51343 20.5282C5.31808 20.3328 5.20833 20.0679 5.20833 19.7916V5.20825C5.20833 4.93198 5.31808 4.66703 5.51343 4.47168C5.70878 4.27633 5.97373 4.16659 6.25 4.16659H11.4583V7.29159C11.4583 8.12039 11.7876 8.91524 12.3736 9.5013C12.9597 10.0873 13.7545 10.4166 14.5833 10.4166H18.75C18.9557 10.4156 19.1564 10.3537 19.3269 10.2388C19.4975 10.1238 19.6302 9.96098 19.7083 9.77075C19.7881 9.58105 19.8099 9.37198 19.771 9.16991C19.732 8.96783 19.6341 8.78182 19.4896 8.63534L13.2396 2.38534C13.1535 2.30431 13.055 2.2375 12.9479 2.18742H12.8542L12.5625 2.08325H6.25C5.4212 2.08325 4.62634 2.41249 4.04029 2.99854C3.45424 3.58459 3.125 4.37945 3.125 5.20825V19.7916C3.125 20.6204 3.45424 21.4152 4.04029 22.0013C4.62634 22.5873 5.4212 22.9166 6.25 22.9166H14.5833C14.8596 22.9166 15.1246 22.8068 15.3199 22.6115C15.5153 22.4161 15.625 22.1512 15.625 21.8749C15.625 21.5987 15.5153 21.3337 15.3199 21.1383C15.1246 20.943 14.8596 20.8333 14.5833 20.8333ZM13.5417 5.63534L16.2396 8.33325H14.5833C14.3071 8.33325 14.0421 8.22351 13.8468 8.02816C13.6514 7.8328 13.5417 7.56785 13.5417 7.29159V5.63534Z" fill="#535353"/>
</svg>
