<svg width="40" height="40" viewBox="0 0 40 40" fill="none" xmlns="http://www.w3.org/2000/svg">
<path d="M6.6665 3.33331H33.3332C35.1665 3.33331 36.6498 4.83331 36.6498 6.66665L36.6665 36.6666L29.9998 30H6.6665C4.83317 30 3.33317 28.5 3.33317 26.6666V6.66665C3.33317 4.83331 4.83317 3.33331 6.6665 3.33331ZM6.6665 26.6666H31.3832L33.3332 28.6166V6.66665H6.6665V26.6666Z" fill="#6BC432"/>
<path d="M13.3332 23.3333H23.3332C24.2498 23.3333 24.9998 22.5833 24.9998 21.6667V18.35L28.3332 21.6667V11.6667L24.9998 14.9833V11.6667C24.9998 10.75 24.2498 10 23.3332 10H13.3332C12.4165 10 11.6665 10.75 11.6665 11.6667V21.6667C11.6665 22.5833 12.4165 23.3333 13.3332 23.3333Z" fill="#6BC432"/>
</svg>
