<svg width="21" height="21" viewBox="0 0 21 21" fill="none" xmlns="http://www.w3.org/2000/svg">
<path d="M18.9001 14.7V4.20002C18.9001 3.62252 18.4276 3.15002 17.8501 3.15002H3.1501C2.5726 3.15002 2.1001 3.62252 2.1001 4.20002V14.7C2.1001 15.2775 2.5726 15.75 3.1501 15.75H17.8501C18.4276 15.75 18.9001 15.2775 18.9001 14.7ZM10.5001 6.30002C12.9151 6.30002 15.1201 7.49702 16.8001 9.45002C15.1201 11.403 12.9151 12.6 10.5001 12.6C8.0851 12.6 5.8801 11.403 4.2001 9.45002C5.8801 7.49702 8.0851 6.30002 10.5001 6.30002ZM12.6001 9.45002C12.6001 8.29502 11.6551 7.35002 10.5001 7.35002C9.3451 7.35002 8.4001 8.29502 8.4001 9.45002C8.4001 10.605 9.3451 11.55 10.5001 11.55C11.6551 11.55 12.6001 10.605 12.6001 9.45002ZM14.7001 17.85H17.8501V18.9H3.1501V17.85H6.3001V16.8H14.7001V17.85Z" fill="#7A7777"/>
</svg>
