<svg width="40" height="40" viewBox="0 0 41 41" fill="none" xmlns="http://www.w3.org/2000/svg">
  <path d="M1 21.6761C1 23.5383 1.69539 25.1479 3.08617 26.5047C4.47695 27.8615 6.14326 28.5399 8.08511 28.5399H11.4702C12.205 28.5399 12.756 28.8059 13.1234 29.338L16.5085 34.6056C17.4532 36.2019 18.9489 37 20.9957 37H24.3808C25.3255 37 26.1521 36.6674 26.8606 36.0023C27.5691 35.3372 27.9234 34.5524 27.9234 33.6479V6.35211C27.9234 5.44757 27.5823 4.66275 26.9 3.99765C26.2177 3.33255 25.378 3 24.3808 3H20.9957C18.9489 3 17.4532 3.79812 16.5085 5.39437L13.1234 10.662C12.756 11.1941 12.205 11.4601 11.4702 11.4601H8.08511C6.14326 11.4601 4.47695 12.1385 3.08617 13.4953C1.69539 14.8521 1 16.4617 1 18.3239V21.6761ZM4.38511 18.3239C4.38511 17.3662 4.73936 16.5548 5.44787 15.8897C6.15638 15.2246 7.03546 14.892 8.08511 14.892H11.4702C13.3596 14.892 14.8553 14.0939 15.9574 12.4977L19.3426 7.23005C19.7099 6.64476 20.261 6.35211 20.9957 6.35211H24.5383V33.6479H20.9957C20.261 33.6479 19.7099 33.3552 19.3426 32.77L15.9574 27.5023C15.1177 25.9061 13.622 25.108 11.4702 25.108H8.08511C7.03546 25.108 6.15638 24.7754 5.44787 24.1103C4.73936 23.4452 4.38511 22.6338 4.38511 21.6761V18.3239ZM32.9617 25.108V14.892C32.9617 13.7746 32.3844 13.216 31.2298 13.216C30.1277 13.216 29.5766 13.7746 29.5766 14.892V25.108C29.5766 26.2254 30.1277 26.784 31.2298 26.784C32.3844 26.784 32.9617 26.2254 32.9617 25.108ZM36.2681 8.10798C35.166 8.10798 34.6149 8.66667 34.6149 9.78404V30.216C34.6149 31.3333 35.166 31.892 36.2681 31.892C37.4227 31.892 38 31.3333 38 30.216V9.78404C38 8.66667 37.4227 8.10798 36.2681 8.10798Z" fill="black"/>
  <rect x="38.5703" y="-0.0917969" width="3" height="55" rx="1.5" transform="rotate(44.5084 38.5703 -0.0917969)" fill="#FF0000"/>
</svg>
